<svg height="464pt" viewBox="0 -64 464 464" width="464pt" xmlns="http://www.w3.org/2000/svg"><path d="m360 112h32v192h-32zm0 0" fill="#5a6470"/><path d="m320 112v-48h-160v48l-48 32h-48v128h48l48 32h200v-192zm0 0" fill="#cfdfe8"/><path d="m0 104h32v200h-32zm0 0" fill="#2680a8"/><path d="m32 176h32v64h-32zm0 0" fill="#5a6470"/><path d="m456 280h-32v-144h32l8 24v96zm0 0" fill="#5a6470"/><path d="m392 184h32v48h-32zm0 0" fill="#2680a8"/><path d="m224 32h32v32h-32zm0 0" fill="#2680a8"/><path d="m112 0h256v32h-256zm0 0" fill="#5a6470"/><g fill="#9ca8b5"><path d="m320 120h-88c-4.417969 0-8-3.582031-8-8s3.582031-8 8-8h88c4.417969 0 8 3.582031 8 8s-3.582031 8-8 8zm0 0"/><path d="m200 120h-8c-4.417969 0-8-3.582031-8-8s3.582031-8 8-8h8c4.417969 0 8 3.582031 8 8s-3.582031 8-8 8zm0 0"/><path d="m112 208c-4.417969 0-8-3.582031-8-8v-56c0-4.417969 3.582031-8 8-8s8 3.582031 8 8v56c0 4.417969-3.582031 8-8 8zm0 0"/><path d="m112 248c-4.417969 0-8-3.582031-8-8v-8c0-4.417969 3.582031-8 8-8s8 3.582031 8 8v8c0 4.417969-3.582031 8-8 8zm0 0"/><path d="m328 168h-184c-4.417969 0-8-3.582031-8-8s3.582031-8 8-8h184c4.417969 0 8 3.582031 8 8s-3.582031 8-8 8zm0 0"/><path d="m328 200h-184c-4.417969 0-8-3.582031-8-8s3.582031-8 8-8h184c4.417969 0 8 3.582031 8 8s-3.582031 8-8 8zm0 0"/><path d="m328 232h-184c-4.417969 0-8-3.582031-8-8s3.582031-8 8-8h184c4.417969 0 8 3.582031 8 8s-3.582031 8-8 8zm0 0"/><path d="m328 264h-184c-4.417969 0-8-3.582031-8-8s3.582031-8 8-8h184c4.417969 0 8 3.582031 8 8s-3.582031 8-8 8zm0 0"/></g><path d="m184 304h112v32h-112zm0 0" fill="#5a6470"/></svg>