<svg id="Capa_1" enable-background="new 0 0 512 512" height="512" viewBox="0 0 512 512" width="512" xmlns="http://www.w3.org/2000/svg"><g><path d="m211 120v-45h-150v120h150v-45l-30-15z" fill="#e1ebf0"/><g><path d="m121 120h90v30h-90z" fill="#607882"/></g><path d="m148.001 69 1.417-.709-34.146-68.291h-54.272v69z" fill="#e1ebf0"/><g><path d="m31 60h210v30h-210z" fill="#495959"/></g><path d="m31 180h210v75h-210z" fill="#ff8856"/><path d="m481 210v77c0 38.099-20.4 71.7-51 90h-369c0-24.901-21.099-45-46-45h-15v-92h369.699l30-30z" fill="#607882"/><path d="m481 210v77c0 38.099-20.4 71.7-51 90h-174v-137h113.699l30-30z" fill="#495959"/><g><g><g><path d="m0 362h512v30h-512z" fill="#6aa8ff"/></g></g></g><g><g><g><path d="m61 422h30v30h-30z" fill="#6aa8ff"/></g></g></g><g><g><g><path d="m421 482h30v30h-30z" fill="#7984ec"/></g></g></g><g><g><g><path d="m121 422h240v30h-240z" fill="#6aa8ff"/></g></g></g><g><g><g><path d="m151 482h240v30h-240z" fill="#6aa8ff"/></g></g></g><g fill="#7984ec"><path d="m256 422h105v30h-105z"/><path d="m256 482h135v30h-135z"/><path d="m256 362h256v30h-256z"/></g><g><path d="m361 302h30v30h-30z" fill="#b4d2d7"/></g><g><path d="m301 302h30v30h-30z" fill="#b4d2d7"/></g><g><path d="m241 302h30v30h-30z" fill="#e1ebf0"/></g><g><path d="m181 302h30v30h-30z" fill="#e1ebf0"/></g><g><path d="m121 302h30v30h-30z" fill="#e1ebf0"/></g><path d="m256 302h15v30h-15z" fill="#b4d2d7"/></g></svg>