<?xml version="1.0" encoding="iso-8859-1"?>
<!-- Generator: Adobe Illustrator 21.0.0, SVG Export Plug-In . SVG Version: 6.00 Build 0)  -->
<svg xmlns="http://www.w3.org/2000/svg" xmlns:xlink="http://www.w3.org/1999/xlink" version="1.1" id="Capa_1" x="0px" y="0px" viewBox="0 0 512 512" style="enable-background:new 0 0 512 512;" xml:space="preserve" width="512" height="512">
<g>
	<path style="fill:#FFFB7C;" d="M118.097,475.371c-13.788,13.788-39.051,29.708-59.84,31.829l-41.578,4.668   c-4.455,0.636-9.122-1.06-12.304-4.243s-4.879-7.849-4.243-12.304l11.263-48.164c2.545-23.334,13.789-43.91,30.547-58.123   c8.485-7.213,19.092-11.031,29.699-11.456l47.305,15.485l1.696,0.425l13.789,46.88c-0.425,10.607-4.243,21.215-11.456,29.699   C121.492,471.976,119.794,473.674,118.097,475.371z"/>
	<path style="fill:#FFD946;" d="M122.976,470.068c-1.484,1.908-3.181,3.606-4.879,5.303c-13.788,13.788-39.051,29.708-59.84,31.829   l-41.578,4.668c-4.455,0.636-9.122-1.06-12.304-4.243l114.571-114.561l1.696,0.425l13.789,46.88   C134.007,450.975,130.189,461.583,122.976,470.068z"/>
	<g>
		<path style="fill:#3E5959;" d="M265.529,182.841c-5.863,5.863-15.351,5.863-21.213,0l-63.64-63.64    c-4.288-4.288-5.583-10.741-3.252-16.345c2.32-5.614,7.789-8.66,13.859-8.66h127.279c6.091,0,11.528,3.036,13.859,8.66    c2.331,5.604,1.036,12.057-3.252,16.345L265.529,182.841z"/>
	</g>
	<g>
		<path style="fill:#293939;" d="M417.813,320.727c0,6.07-3.046,11.539-8.66,13.859c-5.604,2.331-12.057,1.036-16.345-3.252    l-63.64-63.64c-5.863-5.863-5.863-15.351,0-21.213l63.64-63.64c4.288-4.288,10.741-5.583,16.345-3.252    c5.593,2.341,8.67,7.8,8.66,13.859V320.727z"/>
	</g>
	<polygon style="fill:#C5D3DD;" points="191.283,426.793 134.432,440.369 71.641,377.578 85.217,320.727 141.22,342.79    151.614,360.396  "/>
	<path style="fill:#3E5959;" d="M127.109,321.262l74.781-74.781c4.288-4.288,5.583-10.741,3.252-16.345   c-2.32-5.635-7.769-9.06-13.859-9.06H106.43c-3.977,0-7.789,1.374-10.607,4.192l-42.426,42.426c-5.863,5.863-5.863,15.351,0,21.213   l31.82,31.82L127.109,321.262z"/>
	<path style="fill:#293939;" d="M290.934,407.901v-84.853c0-6.049-3.446-13.86-9.06-16.18c-5.604-2.331-12.057-1.036-16.345,3.252   l-66.532,66.532l-7.714,50.141l31.82,31.82c5.863,5.863,15.351,5.863,21.213,0l42.226-40.106   C289.36,415.69,290.934,411.878,290.934,407.901z"/>
	<polygon style="fill:#9FACBA;" points="151.614,360.396 191.283,426.793 134.432,440.369 103.036,408.974  "/>
	<polygon style="fill:#DEECF1;" points="403.415,214.661 191.283,426.793 85.217,320.727 297.349,108.595 349.745,118.565    379.656,148.476  "/>
	<polygon style="fill:#C5D3DD;" points="379.656,148.476 403.415,214.661 191.283,426.793 138.25,373.76 371.595,140.415  "/>
	<polygon style="fill:#C5D3DD;" points="445.841,172.235 403.415,214.661 297.349,108.595 339.775,66.169 388.778,72.745    436.72,120.687  "/>
	<polygon style="fill:#9FACBA;" points="445.841,172.235 403.415,214.661 350.382,161.628 414.021,97.989 436.72,120.687  "/>
	<g>
		<path style="fill:#FF9100;" d="M498.874,13.136c-31.183-31.183-103.308-2.758-148.492,42.426l-10.607,10.607l106.066,106.066    l10.819-10.819C502.057,115.595,529.846,44.107,498.874,13.136z"/>
	</g>
	<path style="fill:#FF641A;" d="M456.66,161.416l-10.819,10.819l-53.033-53.033L498.874,13.136   C529.846,44.107,502.057,115.595,456.66,161.416z"/>
</g>















</svg>
