<svg height="472pt" viewBox="-20 0 472 472.31734" width="472pt" xmlns="http://www.w3.org/2000/svg"><path d="m288.40625 63.597656c59.359375 59.359375 51.359375 156.640625-8 216s-156.640625 67.359375-216 8zm0 0" fill="#195c85"/><path d="m104.40625 111.597656 104 32-64 64zm0 0" fill="#aabece"/><path d="m109.375 99.597656c0 9.371094-7.597656 16.96875-16.96875 16.96875s-16.96875-7.597656-16.96875-16.96875 7.597656-16.96875 16.96875-16.96875 16.96875 7.597656 16.96875 16.96875zm0 0" fill="#87cee9"/><path d="m40.40625 103.597656c-4.417969 0-8-3.582031-8-8-.8125-16.871094 5.355469-33.332031 17.058594-45.511718 12.933594-11.625 29.632812-18.191407 47.023437-18.488282 4.417969.023438 7.980469 3.621094 7.960938 8.039063-.023438 4.417969-3.625 7.984375-8.042969 7.960937h-.054688c-13.171874.316406-25.8125 5.253906-35.710937 13.945313-8.546875 9.210937-12.960937 21.511719-12.234375 34.054687 0 4.417969-3.582031 8-8 8zm0 0" fill="#e97424"/><path d="m8.398438 119.597656c-4.25.007813-7.765626-3.316406-8-7.558594-1.839844-33.601562 6.878906-60.53125 25.921874-80 32.71875-33.417968 83.664063-32.1289058 85.871094-31.9999995 2.125.0664065 4.136719.9765625 5.589844 2.5312495 1.457031 1.550782 2.230469 3.621094 2.152344 5.746094-.039063 2.128906-.933594 4.152344-2.488282 5.609375-1.554687 1.457031-3.628906 2.226563-5.757812 2.128907-.535156 0-46.273438-1.105469-73.984375 27.285156-15.71875 16.105468-22.886719 38.914062-21.3125 67.816406.242187 4.410156-3.136719 8.179688-7.542969 8.425781-.148437.011719-.300781.019531-.449218.015625zm0 0" fill="#e97424"/><path d="m280.398438 215.597656c-2.769532-.003906-5.339844-1.441406-6.792969-3.800781-1.457031-2.355469-1.589844-5.296875-.351563-7.777344 11.925782-25.601562 11.96875-55.160156.121094-80.796875-1.992188-3.90625-.472656-8.683594 3.410156-10.722656 3.882813-2.035156 8.679688-.570312 10.757813 3.289062 14.4375 30.171876 14.4375 65.253907 0 95.425782-1.363281 2.691406-4.125 4.386718-7.144531 4.382812zm0 0" fill="#fff"/><path d="m72.199219 424.316406h336c13.253906 0 24 10.746094 24 24s-10.746094 24-24 24h-336c-13.253907 0-24-10.746094-24-24s10.746093-24 24-24zm0 0" fill="#2d75bb"/><path d="m248.199219 328.316406h48v96h-48zm0 0" fill="#7d8d9c"/><path d="m328.199219 304.316406c0 30.929688-25.070313 56-56 56-30.929688 0-56-25.070312-56-56 0-30.925781 25.070312-56 56-56 30.929687 0 56 25.074219 56 56zm0 0" fill="#aabece"/></svg>