<?xml version="1.0" encoding="iso-8859-1"?>
<!-- Generator: Adobe Illustrator 19.0.0, SVG Export Plug-In . SVG Version: 6.00 Build 0)  -->
<svg version="1.1" id="Layer_1" xmlns="http://www.w3.org/2000/svg" xmlns:xlink="http://www.w3.org/1999/xlink" x="0px" y="0px"
	 viewBox="0 0 512 512" style="enable-background:new 0 0 512 512;" xml:space="preserve">
<circle style="fill:#0F7986;" cx="256" cy="256" r="256"/>
<path style="fill:#DCE3DB;" d="M258.612,65.811c106.58,0,192.98,86.399,192.98,192.98s-86.399,192.98-192.98,192.98
	s-192.98-86.4-192.98-192.98S152.031,65.811,258.612,65.811z M266.967,85.694v50.845c61.02,4.114,109.789,52.883,113.898,113.898
	h50.84c-4.228-89.063-75.684-160.514-164.742-164.742C266.962,85.694,266.967,85.694,266.967,85.694z M266.967,152.41v59.049
	c19.844,3.479,35.499,19.133,38.977,38.977h59.049C360.945,198.17,319.233,156.462,266.967,152.41z M266.967,226.55v23.886h23.886
	C287.835,238.758,278.645,229.569,266.967,226.55z M431.71,267.147h-50.84c-4.109,61.02-52.883,109.789-113.898,113.903v50.845
	c89.063-4.228,160.514-75.684,164.742-164.742L431.71,267.147z M364.992,267.147h-59.049c-3.479,19.844-19.133,35.499-38.977,38.977
	v59.049C319.233,361.126,360.945,319.413,364.992,267.147z M290.854,267.147h-23.886v23.886
	C278.645,288.014,287.835,278.82,290.854,267.147z M250.256,431.889v-50.845c-61.02-4.109-109.794-52.883-113.903-113.903H85.513
	c4.228,89.063,75.679,160.514,164.742,164.742v0.005H250.256z M250.256,365.173v-59.049c-19.848-3.479-35.499-19.133-38.977-38.977
	h-59.049c4.047,52.271,45.76,93.978,98.031,98.031L250.256,365.173z M250.256,291.034v-23.886H226.37
	C229.383,278.825,238.583,288.019,250.256,291.034z M85.513,250.436h50.84c4.114-61.02,52.883-109.789,113.903-113.898V85.694
	C161.197,89.921,89.741,161.373,85.513,250.436z M152.231,250.436h59.049c3.479-19.844,19.133-35.499,38.977-38.977V152.41
	C197.984,156.457,156.278,198.17,152.231,250.436z M226.369,250.436h23.886V226.55C238.578,229.564,229.383,238.758,226.369,250.436
	z"/>
<path style="fill:#21D0C3;" d="M81.997,255.588c0.161-67.992,39.313-126.812,96.281-155.302l77.514,155.302l-77.514,155.302
	C121.31,382.4,82.154,323.579,81.997,255.588z"/>
<path style="fill:#FFFFFF;" d="M256,63.02c106.58,0,192.98,86.399,192.98,192.98S362.58,448.98,256,448.98S63.02,362.58,63.02,256
	S149.42,63.02,256,63.02z M264.356,82.902v50.845c61.02,4.114,109.789,52.883,113.898,113.898h50.84
	C424.866,158.581,353.41,87.13,264.351,82.902H264.356z M264.356,149.619v59.049c19.844,3.479,35.499,19.133,38.977,38.977h59.049
	C358.334,195.378,316.622,153.671,264.356,149.619z M264.356,223.758v23.886h23.886
	C285.223,235.966,276.034,226.777,264.356,223.758z M429.098,264.356h-50.84c-4.109,61.02-52.883,109.789-113.898,113.903v50.845
	c89.063-4.228,160.514-75.684,164.742-164.742L429.098,264.356z M362.381,264.356h-59.049
	c-3.479,19.844-19.133,35.499-38.977,38.977v59.049C316.622,358.334,358.334,316.622,362.381,264.356z M288.242,264.356h-23.886
	v23.886C276.034,285.223,285.223,276.029,288.242,264.356z M247.644,429.098v-50.845c-61.02-4.109-109.794-52.883-113.903-113.903
	h-50.84c4.228,89.063,75.679,160.514,164.742,164.742L247.644,429.098L247.644,429.098z M247.644,362.381v-59.049
	c-19.848-3.479-35.499-19.133-38.977-38.977h-59.049c4.047,52.271,45.76,93.978,98.031,98.031L247.644,362.381z M247.644,288.242
	v-23.886h-23.886C226.772,276.034,235.971,285.228,247.644,288.242z M82.902,247.644h50.84
	c4.114-61.02,52.883-109.789,113.903-113.898V82.902C158.586,87.13,87.13,158.581,82.902,247.644z M149.619,247.644h59.049
	c3.479-19.844,19.133-35.499,38.977-38.977v-59.049C195.373,153.666,153.666,195.378,149.619,247.644z M223.758,247.644h23.886
	v-23.886C235.966,226.772,226.772,235.966,223.758,247.644z"/>
<circle style="fill:#FAD24D;" cx="338.569" cy="336.623" r="18.115"/>
<g>
	<path style="fill:#FF5B62;" d="M306.399,304.46h20.531v4.635h-15.896v15.891h-4.635L306.399,304.46L306.399,304.46z
		 M350.201,304.46h20.527v20.527h-4.635v-15.891h-15.891L350.201,304.46L350.201,304.46z M370.727,348.258v20.531H350.2v-4.635
		h15.891v-15.896L370.727,348.258L370.727,348.258z M326.93,368.789H306.4v-20.531h4.635v15.896h15.896V368.789z"/>
	<circle style="fill:#FF5B62;" cx="316.841" cy="156.005" r="18.115"/>
</g>
<path style="fill:#FAD24D;" d="M284.683,123.841h20.527v4.635h-15.891v15.891h-4.635L284.683,123.841L284.683,123.841z
	 M328.48,123.841h20.531v20.527h-4.635v-15.891h-15.891v-4.635L328.48,123.841L328.48,123.841z M349.011,167.639v20.531H328.48
	v-4.635h15.891v-15.892h4.635L349.011,167.639z M305.21,188.169h-20.527v-20.531h4.635v15.891h15.891v4.635L305.21,188.169
	L305.21,188.169z"/>
<g>
</g>
<g>
</g>
<g>
</g>
<g>
</g>
<g>
</g>
<g>
</g>
<g>
</g>
<g>
</g>
<g>
</g>
<g>
</g>
<g>
</g>
<g>
</g>
<g>
</g>
<g>
</g>
<g>
</g>
</svg>
