<svg id="Layer_1" enable-background="new 0 0 480 480" height="512" viewBox="0 0 480 480" width="512"
     xmlns="http://www.w3.org/2000/svg">
    <path d="m456 117.501h-136.47c14.06-3.58 24.46-16.332 24.46-31.502 0-25.655-28.261-40.91-49.62-27.631-5.08-11.9-11.53-22.889-19-32.659-11.86-15.83-30.69-13.401-39.64-2.021-14.47 18.29-25.25 40.88-30.12 65.77-2.39 12.26 4.94 24.533 16.84 28.043h-158.45v-15c0-15.458-12.54-28-28-28s-28 12.54-28 28v316c0 26.51 21.49 48 48 48h400c8.84 0 16-7.16 16-16v-317c0-8.84-7.16-16-16-16zm-168.55 0c2.54-.81 4.96-2.08 7.14-3.74 2.72 1.66 5.69 2.93 8.86 3.74z"
          fill="#fff3e4"/>
    <path d="m472 411.501v39c0 8.84-7.16 16-16 16h-400c-26.51 0-48-21.49-48-48v-316c0-15.46 12.54-28 28-28 15.458 0 28 12.54 28 28v277c0 17.67 14.33 32 32 32z"
          fill="#ffbd7b"/>
    <path d="m472 133.501v37h-66.32c-17.5 0-31.68 14.18-31.68 31.68v40.64c0 17.501-14.18 31.68-31.68 31.68s-31.69-14.18-31.69-31.68v-8.64c0-17.457-14.145-31.68-31.68-31.68-17.5 0-31.68 14.18-31.68 31.68v46.14c0 17.457-14.145 31.68-31.68 31.68-17.5 0-31.69-14.18-31.69-31.68v-78.14c0-17.5-14.18-31.68-31.68-31.68h-88.22v-53h392c8.84 0 16 7.16 16 16z"
          fill="#fc0"/>
    <path d="m35.835 420.689c-.001 17.725-26.48 18.89-27.716 1.209-.185-2.635-.119-318.923-.119-318.812 0-25.488 30.713-38.34 48.282-19.886 6.533 6.862 4.116 17.949-4.419 22.063-9.385 4.523-15.881 14.127-15.863 25.238.288 173.016-.164 251.99-.165 290.188z"
          fill="#ffd3a6"/>
    <path d="m281.249 118.468c-.864.045-52.22.062-53.37-.02-15.014-.911-25.013-14.953-22.27-28.989 4.87-24.885 15.648-47.476 30.12-65.77 8.952-11.375 27.776-13.804 39.64 2.021 13.632 17.828 23.863 39.745 28.56 63.748 3.079 15.749-9.591 29.01-22.68 29.01z"
          fill="#f90"/>
    <path d="m311.49 53.5c17.95 0 32.5 14.55 32.5 32.5s-14.55 32.498-32.5 32.498c-17.875 0-32.5-14.483-32.5-32.5-.001-17.858 14.466-32.498 32.5-32.498z"
          fill="#80aaff"/>
    <path d="m259.884 14.986c10.915 2.197 13.25 17.137 3.421 22.367-2.88 1.533-5.475 3.661-7.576 6.335-11.977 15.244-21.843 35.392-26.884 51.69-4.432 14.328-25.946 9.256-23.312-5.509 3.851-21.59 14.113-45.709 30.197-66.18 5.808-7.394 15.228-10.5 24.154-8.703z"
          fill="#fa0"/>
    <path d="m317.846 72.225c-9.295 3.315-16.817 10.838-20.126 20.157-3.35 9.435-16.958 8.19-18.375-1.722-3.153-22.057 15.764-39.89 36.811-36.819 9.915 1.447 11.128 15.018 1.69 18.384z"
          fill="#9cbcff"/>
    <g fill="#fa0">
        <path d="m472 133.501c0 8.651-7.187 14.479-15.064 14.027-.721-.041-388.187-.027-392.936-.027v-30h392c8.837 0 16 7.164 16 16z"/>
        <path d="m202.628 283.4c1.14 11.83-16.044 14.439-18.199 2.75-1.508-8.18.441-81.584-1.048-89.715-2.122-11.588 14.793-15.796 17.854-4.42.802 2.982 1.245 6.355 1.245 10.166 0 85.385-.064 79.022.148 81.219z"/>
        <path d="m331.687 255.124c3.5 8.298-7.405 15.231-13.321 8.44-4.778-5.486-7.736-12.676-7.736-20.742-.141-1.008 1.206-11.342-2.86-21.381-3.377-8.34 7.333-15.09 13.35-8.4 13.597 15.116 4.26 27.129 10.567 42.083z"/>
    </g>
    <path d="m472 170.501v241h-376c-36.011 0-27.635-48.463 1.779-42.503 167.496 33.938 345.205-27.911 317.981-198.497z"
          fill="#ffebd2"/>
    <path d="m480 170.501v280c0 13.233-10.767 24-24 24h-400c-30.878 0-56-25.122-56-56 0-11.209 0-298.497 0-316 0-19.851 16.149-36 36-36s36 16.149 36 36v7h129.576c-3.951-6.755-5.34-14.74-3.809-22.576 4.914-25.129 15.868-49.05 31.679-69.176 12.826-16.328 37.827-16.34 50.664-.001 2.729 3.475 2.125 8.504-1.349 11.233s-8.503 2.126-11.233-1.349c-6.406-8.154-19.085-8.166-25.5 0-14.253 18.144-24.128 39.708-28.558 62.363-1.98 10.128 5.693 19.506 15.959 19.506h49.85c-20.116-26.39-1.366-65 32.22-65 4.418 0 8 3.582 8 8s-3.582 8-8 8c-13.509 0-24.5 10.991-24.5 24.5s10.991 24.5 24.5 24.5 24.5-10.991 24.5-24.5c0-4.418 3.582-8 8-8s8 3.582 8 8c0 9.202-3.09 17.692-8.28 24.5h112.281c23.759 0 31.362 32 16 32-4.418 0-8-3.582-8-8 0-4.411-3.589-8-8-8-5.007 0-382.555 0-384 0v254c0 13.234 10.767 24 24 24h312.226c4.418 0 8 3.582 8 8s-3.582 8-8 8h-312.226c-22.056 0-40-17.944-40-40v-277c0-11.028-8.972-20-20-20s-20 8.972-20 20v316c0 22.056 17.944 40 40 40h400c4.411 0 8-3.589 8-8v-272h-58.317c-13.059 0-23.683 10.624-23.683 23.683v40.635c0 21.881-17.802 39.683-39.683 39.683s-39.683-17.802-39.683-39.683v-8.635c0-13.059-10.624-23.683-23.683-23.683s-23.683 10.624-23.683 23.683v46.135c0 21.881-17.802 39.683-39.683 39.683s-39.683-17.802-39.683-39.683v-78.135c0-13.059-10.624-23.683-23.683-23.683h-23.219c-4.418 0-8-3.582-8-8s3.582-8 8-8h23.221c21.881 0 39.683 17.802 39.683 39.683v78.135c0 13.059 10.624 23.683 23.683 23.683s23.683-10.624 23.683-23.683v-46.135c0-21.881 17.802-39.683 39.683-39.683s39.683 17.802 39.683 39.683v8.635c0 13.059 10.624 23.683 23.683 23.683s23.683-10.624 23.683-23.683v-40.635c0-21.881 17.802-39.683 39.683-39.683h66.315c4.418 0 8 3.582 8 8z"/>
</svg>