<svg height="512" viewBox="0 0 46 60" width="512" xmlns="http://www.w3.org/2000/svg"><g id="Page-1" fill="none" fill-rule="evenodd"><g id="024---Cake" fill-rule="nonzero" transform="translate(0 -1)"><g id="Icons" transform="translate(0 4)"><path id="Shape" d="m45 13.03-22 7-22-7 17.46-5.55c.2424741 1.57295947.8981331 3.0533683 1.9 4.29 1.6680028.4464953 3.3656052.7739856 5.08.98 2.17052-.4934814 4.0243999-1.8957285 5.09-3.85.0683949-.13625127.1285042-.27650625.18-.42z" fill="#91562d"/><path id="Shape" d="m45 40v5l-22 11v-5z" fill="#91562d"/><path id="Shape" d="m45 45v-5l-3 1.5v5.5" fill="#783e22"/><path id="Shape" d="m45 28.89v11.11l-22 11v-11c2.5675225-2.0078752 5.3276716-3.7564162 8.24-5.22 4.52-2.13 9.68-2.94 13.7-5.89z" fill="#ffe0b2"/><path id="Shape" d="m45 40v-11.11h-.06c-.9247567.6657848-1.9089209 1.2449018-2.94 1.73v11.38" fill="#dfc49c"/><path id="Shape" d="m45 16.77v12.12h-.06c-4.02 2.95-9.18 3.76-13.7 5.89-2.9123284 1.4635838-5.6724775 3.2121248-8.24 5.22v-14.98c7.72-1.02 15.25-4.43 22-8.25z" fill="#ff9801"/><path id="Shape" d="m44.94 28.89h.06v-12.12c-.983.556-1.986 1.1-3 1.631v12.599" fill="#f57c00"/><path id="Shape" d="m45 13.03v3.74c-6.75 3.82-14.28 7.23-22 8.25v-4.99z" fill="#91562d"/><path id="Shape" d="m45 16.77v-3.74l-3 .954v4.016" fill="#783e22"/><path id="Shape" d="m23 51v5l-22-11v-5z" fill="#91562d"/><path id="Shape" d="m23 40v11l-22-11v-9.42c2.9620667 2.3677296 6.25330059 4.2912654 9.77 5.71 3.9694144 1.5659842 8.0595479 2.806736 12.23 3.71z" fill="#ffe0b2"/><path id="Shape" d="m23 25.02v14.98c-4.1704521-.903264-8.2605856-2.1440158-12.23-3.71-3.51669941-1.4187346-6.8079333-3.3422704-9.77-5.71v-12.46c2.01718652 1.1762603 4.24025986 1.9568815 6.55 2.3 2.31204932.3367238 4.5952544.8481885 6.83 1.53 2.87 1.03 5.54 2.86 8.58 3.08.014096.0014964.0282665-.0020463.04-.01z" fill="#ff9801"/><path id="Shape" d="m23 20.03v4.99c-.0117335.0079537-.025904.0114964-.04.01-3.04-.22-5.71-2.05-8.58-3.08-2.2347456-.6818115-4.51795068-1.1932762-6.83-1.53-2.30974014-.3431185-4.53281348-1.1237397-6.55-2.3v-5.09z" fill="#91562d"/><path id="Shape" d="m1 18.12c0-.0055228-.00447715-.01-.01-.01" fill="#ef314c"/><path id="Shape" d="m30.71 8.48c-.0514958.14349375-.1116051.28374873-.18.42-1.0656001 1.9542715-2.91948 3.3565186-5.09 3.85-1.7143948-.2060144-3.4119972-.5335047-5.08-.98-1.0018669-1.2366317-1.6575259-2.71704053-1.9-4.29v-.01c-.2233653-1.4748605-.0004797-2.98282098.64-4.33.99-1.97 3.01-3.09 4.71-2.24 1.0899557.56588049 1.8866653 1.56995285 2.19 2.76 1.1363028-.46634472 2.4180947-.42264727 3.52.12 1.58.79 1.95 2.83 1.19 4.7z" fill="#ef314c"/><path id="Shape" d="m29.52 3.78c-1.0652837-.52582906-2.3011951-.58523394-3.412-.164.140349.0467636.2779071.10151977.412.164 1.58.79 1.95 2.83 1.19 4.7-.0514958.14349375-.1116051.28374873-.18.42-.8877177 1.6428486-2.3461624 2.9038697-4.1 3.545.632.112 1.293.218 2.014.3 2.17052-.4934814 4.0243999-1.8957285 5.09-3.85.0683949-.13625127.1285042-.27650625.18-.42.756-1.865.386-3.905-1.194-4.695z" fill="#bb193b"/><g fill="#ef314c"><path id="Shape" d="m30 13.03c-1.5242814-.0004587-3.0471135-.093966-4.56-.28z"/><path id="Shape" d="m20.36 11.77c-.7990201-.2053878-1.586761-.4523913-2.36-.74z"/></g></g><g id="Layer_11" fill="#000"><path id="Shape" d="m0 17.028v31.972c-.00207881.3808256.21233064.7297741.553.9l22 11c.2814108.1406214.6125892.1406214.894 0l22-11c.3406694-.1702259.5550788-.5191744.553-.9v-31.972c-.001281-.4356323-.2844308-.8203116-.7-.951l-13.349-4.251c.5708569-1.90732298-.2511625-3.95615034-1.982-4.94-.7170284-.36110826-1.5091794-.54783935-2.312-.545.7894302-1.77014556 2.4287699-3.0140645 4.3460909-3.2977818s3.8466579.43212349 5.1149091 1.8977818c.2319525.27864434.5965536.40991857.9528939.3430884s.6485975-.3212955.7638214-.66505138.0353642-.72295149-.2087153-.99103702c-1.6944573-1.95446081-4.2599136-2.92317757-6.8232903-2.57647568s-4.7793245 1.96211324-5.8937097 4.29647568c-.4483619-.56084058-1.0116676-1.01912313-1.652-1.344-2.107-1.051-4.764.127-6.049 2.684-.604729 1.26909345-.8782302 2.67065824-.795 4.074l-16.713 5.315c-.41556915.1306884-.69871899.5153677-.7.951zm44 15.3c-2.4250394 1.5079787-5.0454615 2.6761998-7.788 3.472-1.8343257.5913385-3.6350044 1.2823665-5.394 2.07-2.3967038 1.1766053-4.6791412 2.572916-6.818 4.171v-12.171c6.023-.936 12.593-3.373 20-7.416zm-22-2.41v12.819c-3.698741-.8506639-7.3283011-1.9781741-10.858-3.373-3.27709864-1.3307956-6.35375247-3.109749-9.142-5.286v-10.278c1.7158463.751617 3.5177496 1.2889973 5.365 1.6.5.1 1.008.187 1.512.277 1.7514973.2622597 3.4783597.6686393 5.163 1.215.925.33 1.821.744 2.77 1.183 1.6380152.8477778 3.3841546 1.4678424 5.19 1.843zm-20 6.647c2.60158925 1.8798315 5.4185759 3.4419145 8.391 4.653 3.77173 1.4888672 7.6529726 2.6837643 11.609 3.574v8.59l-20-10zm22 7.945c2.3934077-1.8547306 4.9614911-3.4723418 7.668-4.83 1.6937581-.7553085 3.4269301-1.4189344 5.192-1.988 2.4740159-.759594 4.8659067-1.7645901 7.14-3v8.69l-20 10zm20-24.333c-7.472 4.179-14.033 6.69-20 7.667v-3.083l20-6.361zm-22 7.705c-1.5083139-.3701477-2.9684575-.9144715-4.351-1.622-.947-.438-1.927-.891-2.938-1.251-1.7880452-.5836652-3.6212912-1.01848-5.481-1.3-.5-.089-.993-.178-1.488-.273-2.0041881-.3129566-3.943754-.9513717-5.742-1.89v-3.146l20 6.363zm-20 17.736 20 10v2.764l-20-10zm22 12.764v-2.764l20-10v2.764zm-4.006-50.793c.686-1.367 2.133-2.412 3.365-1.8.8190849.42600979 1.4217129 1.17630156 1.661 2.068.0623243.29892302.2570429.55335977.5292962.69162555s.5925698.1453933.8707038.01937445c.8594229-.34206826 1.8236076-.30354448 2.653.106 1.148.575 1.227 2.16.7 3.471-.037192.1025507-.0806059.2027368-.13.3-.9033032 1.6451733-2.4557785 2.8355616-4.279 3.281-1.4795989-.1888809-2.946316-.4677308-4.392-.835-.7837818-1.0303273-1.3026332-2.2373179-1.511-3.515 0-.016 0-.032-.006-.048-.1998807-1.2721812-.012061-2.57507174.539-3.739zm-2.279 5.177c.1200975.4438727.2725042.8783655.456 1.3-.4614968-.090275-.9223696.1585963-1.1.594-.2053208.5125188.04357 1.0944578.556 1.3 3.9724056 1.4047202 8.1596987 2.1045765 12.373 2.068.5522847 0 1-.4477153 1-1s-.4477153-1-1-1c-.276 0-.543-.008-.813-.014.815281-.6420725 1.5080419-1.4259593 2.045-2.314l10.468 3.329-18.7 5.951-18.7-5.95z"/><path id="Shape" d="m6.707 28.293-1-1c-.39237889-.3789722-1.01608478-.3735524-1.40181858.0121814-.38573379.3857338-.39115363 1.0094397-.01218142 1.4018186l1 1c.39237889.3789722 1.01608478.3735524 1.40181858-.0121814.38573379-.3857338.39115363-1.0094397.01218142-1.4018186z"/><path id="Shape" d="m8.707 32.293c-.39237889-.3789722-1.01608478-.3735524-1.40181858.0121814-.38573379.3857338-.39115363 1.0094397-.01218142 1.4018186l1 1c.39237889.3789722 1.01608478.3735524 1.40181858-.0121814.38573382-.3857338.39115362-1.0094397.01218142-1.4018186z"/><path id="Shape" d="m18.293 33.707c.3923789.3789722 1.0160848.3735524 1.4018186-.0121814s.3911536-1.0094397.0121814-1.4018186l-1-1c-.3923789-.3789722-1.0160848-.3735524-1.4018186.0121814s-.3911536 1.0094397-.0121814 1.4018186z"/><path id="Shape" d="m12.707 28.293c-.3904999-.3903819-1.0235001-.3903819-1.414 0l-1 1c-.2599566.2510745-.3642126.6228779-.2726972.9725073.0915155.3496295.3645604.6226744.7141899.7141899.3496294.0915154.7214328-.0127406.9725073-.2726972l1-1c.3903819-.3904999.3903819-1.0235001 0-1.414z"/><path id="Shape" d="m13.293 35.293-1 1c-.2599566.2510745-.3642126.6228779-.2726972.9725073.0915155.3496295.3645604.6226744.7141899.7141899.3496294.0915154.7214328-.0127406.9725073-.2726972l1-1c.3789722-.3923789.3735524-1.0160848-.0121814-1.4018186s-1.0094397-.3911536-1.4018186-.0121814z"/><path id="Shape" d="m18.293 38.707c.3923789.3789722 1.0160848.3735524 1.4018186-.0121814s.3911536-1.0094397.0121814-1.4018186l-1-1c-.3923789-.3789722-1.0160848-.3735524-1.4018186.0121814s-.3911536 1.0094397-.0121814 1.4018186z"/><path id="Shape" d="m26.293 33.707c.3904999.3903819 1.0235001.3903819 1.414 0l1-1c.3789722-.3923789.3735524-1.0160848-.0121814-1.4018186s-1.0094397-.3911536-1.4018186-.0121814l-1 1c-.3903819.3904999-.3903819 1.0235001 0 1.414z"/><path id="Shape" d="m31.293 35.707c.3923789.3789722 1.0160848.3735524 1.4018186-.0121814s.3911536-1.0094397.0121814-1.4018186l-1-1c-.3923789-.3789722-1.0160848-.3735524-1.4018186.0121814s-.3911536 1.0094397-.0121814 1.4018186z"/><path id="Shape" d="m34.293 31.707c.3923789.3789722 1.0160848.3735524 1.4018186-.0121814s.3911536-1.0094397.0121814-1.4018186l-1-1c-.3923789-.3789722-1.0160848-.3735524-1.4018186.0121814s-.3911536 1.0094397-.0121814 1.4018186z"/><path id="Shape" d="m39 33c.2651948-.0000566.5195073-.1054506.707-.293l1-1c.3789722-.3923789.3735524-1.0160848-.0121814-1.4018186s-1.0094397-.3911536-1.4018186-.0121814l-1 1c-.2859079.2859943-.3714219.7160366-.216678 1.0896546.1547439.3736179.5192821.6172591.923678.6173454z"/><path id="Shape" d="m40.293 28.707c.3923789.3789722 1.0160848.3735524 1.4018186-.0121814s.3911536-1.0094397.0121814-1.4018186l-1-1c-.3923789-.3789722-1.0160848-.3735524-1.4018186.0121814s-.3911536 1.0094397-.0121814 1.4018186z"/></g></g></g></svg>