<svg id="Layer_1" enable-background="new 0 0 480.002 480.002" height="512" viewBox="0 0 480.002 480.002" width="512"
     xmlns="http://www.w3.org/2000/svg">
    <path d="m418.001 327.002h-10.76v-65.73c11.49-1.88 20.07-11.86 20.07-23.68v-98.59c0-13.25-10.74-24-24-24h-326.62c-13.26 0-24 10.75-24 24v98.59c0 11.82 8.58 21.8 20.07 23.68v65.73h-10.76c-8.84 0-16 7.16-16 16v24c0 8.84 7.16 16 16 16h139l-12 89h102l-12-89h139c8.84 0 16-7.16 16-16v-24c0-8.84-7.16-16-16-16z"
          fill="#ffebd2"/>
    <path d="m418.001 327.002h-356c-8.84 0-16 7.16-16 16v24c0 8.84 7.16 16 16 16h139l-12 89h102l-12-89h139c8.84 0 16-7.16 16-16v-24c0-8.84-7.16-16-16-16z"
          fill="#cbe3fa"/>
    <path d="m427.311 139.002v98.59c0 12.592-9.746 22.87-21.84 23.91-10.933.941-22.15-1.3-31.68-6.83l-.02-.01c-14.7-8.52-38.77-8.52-53.47 0l-.04.02c-14.71 8.53-38.78 8.53-53.48 0l-.04-.02c-14.71-8.52-38.77-8.52-53.48 0l-.04.02c-14.7 8.53-38.77 8.53-53.48 0l-.04-.02c-14.7-8.52-38.77-8.52-53.47 0l-.02.01c-9.53 5.53-20.747 7.771-31.68 6.83-12.065-1.038-21.84-11.288-21.84-23.91v-98.59c0-13.25 10.74-24 24-24h326.62c13.26 0 24 10.75 24 24z"
          fill="#aec"/>
    <path d="m286.051 48.072c16.08 17.62 10.67 45.83-10.69 56.42-14.94 7.4-31.73 11.05-49.12 10.1-8.36-.46-15.52-6.24-17.72-14.32-4.59-16.8-4.55-33.98-.46-50.13 5.9-23.27 32.53-34.3 53.23-22.14 8.992 5.289 17.359 11.949 24.76 20.07z"
          fill="#ff6d7a"/>
    <path d="m261.456 28.099c4.09 2.413 2.699 8.592-2.011 9.197-14 1.799-26.558 11.745-30.384 26.846-2.791 11.022-3.462 22.932-2.696 33.127.811 10.784-14.775 13.668-17.767 3.276-4.349-15.101-4.93-33.057-.537-50.403 5.858-23.107 32.362-34.451 53.395-22.043z"
          fill="#ff8c95"/>
    <path d="m221.001 383.002-12 89h-20l12-89z" fill="#eef7ff"/>
    <path d="m272.008 399.002h-64.015c-4.844 0-8.576-4.27-7.928-9.07l.935-6.93h78l.935 6.93c.649 4.8-3.083 9.07-7.927 9.07z"
          fill="#b5d5f5"/>
    <path d="m418.085 347.002h-326.084c-8.837 0-16 7.163-16 16v10c0 5.523-4.477 10-10 10h-4c-8.837 0-16-7.163-16-16v-24c0-8.837 7.163-16 16-16h356c13.923 0 13.007 20 .084 20z"
          fill="#eef7ff"/>
    <path d="m404.577 115.035c12.805.666 12.045 19.967-.777 19.967h-297.109c-13.26 0-24.007 10.75-24 24 .033 60.196-.045 83.855-.022 93.838.012 5.194-4.618 9.345-9.908 8.432-11.49-1.88-20.07-11.86-20.07-23.68v-98.59c0-13.25 10.74-24 24-24 0 0 327.467.011 327.886.033z"
          fill="#ded"/>
    <path d="m102.761 267.836v51.166c0 4.418-3.582 8-8 8h-22v-65.73c4.629.799 12.592.667 19.964-1.17 5.09-1.268 10.036 2.488 10.036 7.734z"
          fill="#fff3e4"/>
    <g>
        <path d="m418.001 319.002h-2.759v-22.258c0-4.418-3.582-8-8-8s-8 3.582-8 8v22.258h-287.273c-4.418 0-8 3.582-8 8s3.582 8 8 8h306.032c4.411 0 8 3.589 8 8v24c0 4.411-3.589 8-8 8h-356c-4.411 0-8-3.589-8-8v-24c0-4.411 3.589-8 8-8h10.759c4.418 0 8-3.582 8-8v-57.302c10.43-.223 20.687-3.017 29.461-8.104 11.661-6.924 32.768-7.378 45.512.012 17.245 9.997 44.259 9.997 61.543-.023 12.318-7.142 33.134-7.141 45.491.023 17.244 9.997 44.258 9.997 61.543-.023 12.319-7.142 33.133-7.141 45.368-.049 9.638 5.783 23.01 9.138 36.502 7.936 16.607-1.478 29.132-15.183 29.132-31.88v-98.589c0-17.645-14.355-32-32-32h-116.947c10.915-8.409 17.279-21.442 17.016-35.703-.082-4.417-3.725-7.917-8.146-7.851-4.418.082-7.933 3.729-7.852 8.146.204 11.006-5.766 20.865-15.579 25.729-13.953 6.918-29.546 10.125-45.128 9.276-4.943-.269-9.139-3.658-10.441-8.436-4.102-15.038-4.246-30.964-.417-46.06 4.582-18.07 25.27-26.692 41.42-17.208 4.792 2.814 9.739 6.436 12.686 8.857 4.758 3.912 11.894 1.173 12.952-4.771 7.751-4.318 16.594-5.439 25.126-3.235 4.279 1.106 8.642-1.468 9.746-5.746s-1.469-8.642-5.746-9.746c-9.035-2.333-18.319-2.108-27.014.537.114-5.867-1.292-11.527-3.9-16.504-2.052-3.914-6.888-5.423-10.8-3.372-3.913 2.051-5.423 6.886-3.372 10.8 1.789 3.411 2.524 7.413 1.82 11.47-1.123-.713-2.252-1.414-3.396-2.085-25.347-14.882-57.825-1.346-65.032 27.072-4.505 17.765-4.336 36.508.49 54.201 3.118 11.442 13.169 19.561 25.009 20.205 11.504.627-5.648.424 177.505.424 8.822 0 16 7.178 16 16v98.589c0 8.351-6.255 15.205-14.55 15.943-9.638.862-19.276-1.282-26.975-5.792-17.245-9.997-44.259-9.997-61.543.023-12.317 7.142-33.134 7.142-45.492-.023-17.245-9.997-44.258-9.996-61.542.023-12.316 7.142-33.133 7.142-45.492-.023-16.903-9.799-43.745-10.21-61.556.031-7.88 4.559-17.442 6.606-26.922 5.761-8.295-.738-14.55-7.592-14.55-15.943v-98.589c0-8.822 7.178-16 16-16h97.246c4.418 0 8-3.582 8-8s-3.582-8-8-8h-97.246c-17.645 0-32 14.355-32 32v98.589c0 13.487 8.174 25.019 20.069 29.734v51.677h-2.759c-13.233 0-24 10.766-24 24v24c0 13.234 10.767 24 24 24h210.006l6.676 49.515c.59 4.372 4.609 7.449 8.998 6.859 4.378-.59 7.449-4.619 6.859-8.997l-6.388-47.377h129.849c13.233 0 24-10.766 24-24v-24c.001-13.235-10.766-24.001-23.999-24.001z"/>
        <path d="m248.001 200.002v-29c0-4.418-3.582-8-8-8s-8 3.582-8 8v29c0 4.418 3.582 8 8 8s8-3.582 8-8z"/>
        <path d="m146.708 180.002v20c0 4.418 3.582 8 8 8s8-3.582 8-8v-20c0-4.418-3.582-8-8-8s-8 3.581-8 8z"/>
        <path d="m333.294 200.002v-20c0-4.418-3.582-8-8-8s-8 3.582-8 8v20c0 4.418 3.582 8 8 8s8-3.582 8-8z"/>
        <path d="m314.001 464.002h-115.849l5.777-42.848c.59-4.378-2.481-8.407-6.859-8.997-4.376-.587-8.407 2.481-8.998 6.859l-6.065 44.985h-16.006c-4.418 0-8 3.582-8 8s3.582 8 8 8h148c4.418 0 8-3.582 8-8s-3.582-7.999-8-7.999z"/>
    </g>
</svg>