<svg id="Capa_1" enable-background="new 0 0 512.002 512.002" height="512" viewBox="0 0 512.002 512.002" width="512"
     xmlns="http://www.w3.org/2000/svg">
    <path id="XMLID_2082_"
          d="m436.078 304.388-43.67 167.227c-4.674 17.898-20.84 30.385-39.339 30.385h-194.137c-18.498 0-34.665-12.487-39.339-30.385l-43.67-167.227 180.077-22.383z"
          fill="#d29976"/>
    <path id="XMLID_2080_"
          d="m432.663 211.001c-11.817-86.954-86.348-147.895-176.544-147.895-90.144 0-164.642 60.865-176.523 147.747-16.692 9.432-27.968 27.327-27.968 47.867 0 30.351 24.604 54.956 54.956 54.956 22.047 0 41.051-12.988 49.805-31.725 8.755 18.737 27.759 31.725 49.805 31.725s41.051-12.988 49.805-31.725c8.755 18.737 27.759 31.725 49.805 31.725 22.047 0 41.051-12.988 49.805-31.725 8.755 18.737 27.759 31.725 49.805 31.725 30.351 0 54.956-24.604 54.956-54.956.003-20.434-11.158-38.249-27.707-47.719z"
          fill="#ffcb7c"/>
    <circle id="XMLID_2470_" cx="256.016" cy="51.494" fill="#f5737f" r="41.494"/>
    <path id="XMLID_70_"
          d="m470.373 258.719c0-21.557-10.803-41.718-28.499-53.747-11.532-71.102-63.643-127.065-134.989-145.478.409-2.608.625-5.279.625-8.001 0-28.393-23.1-51.493-51.493-51.493s-51.494 23.1-51.494 51.494c0 2.738.22 5.424.633 8.048-71.096 18.452-123.196 74.501-134.76 145.248-17.861 12.006-28.767 32.236-28.767 53.93 0 20.982 10.009 39.662 25.494 51.545l42.795 163.878c5.821 22.29 25.977 37.858 49.015 37.858h33.264c.015 0 .029.002.044.002.014 0 160.829-.002 160.829-.002 23.038 0 43.193-15.568 49.015-37.858l42.795-163.878c15.484-11.884 25.493-30.563 25.493-51.546zm-214.356-238.719c17.366 0 31.494 14.128 31.494 31.494s-14.128 31.494-31.494 31.494-31.494-14.128-31.494-31.494 14.128-31.494 31.494-31.494zm-126.748 449.088-38.483-147.366c5.06 1.269 10.35 1.952 15.799 1.952 14.884 0 29.051-5.182 40.347-14.133l33.328 182.459h-21.328c-13.942 0-26.14-9.421-29.663-22.912zm126.732-47.088c5.523 0 10-4.477 10-10v-102.018c11.205 8.685 25.162 13.693 39.806 13.693 14.171 0 27.689-4.701 38.703-12.874l-33.099 181.199h-110.82l-33.099-181.199c11.013 8.173 24.531 12.874 38.702 12.874 14.644 0 28.601-5.007 39.806-13.693v102.018c.001 5.523 4.478 10 10.001 10zm126.732 47.088c-3.523 13.491-15.721 22.912-29.664 22.912h-21.328l33.329-182.458c11.297 8.95 25.463 14.133 40.347 14.133 5.448 0 10.738-.683 15.798-1.952zm22.684-165.413c-17.384 0-33.377-10.189-40.746-25.958-1.644-3.518-5.176-5.767-9.06-5.767s-7.416 2.249-9.06 5.767c-7.368 15.769-23.361 25.958-40.745 25.958s-33.377-10.189-40.746-25.958c-1.644-3.518-5.176-5.767-9.06-5.767s-7.416 2.249-9.06 5.767c-7.369 15.769-23.362 25.958-40.746 25.958s-33.377-10.189-40.745-25.958c-1.644-3.519-5.176-5.767-9.06-5.767-3.883 0-7.416 2.249-9.06 5.767-7.369 15.769-23.362 25.958-40.746 25.958-24.789 0-44.956-20.167-44.956-44.956 0-16.178 8.77-31.184 22.887-39.161 2.72-1.537 4.565-4.256 4.988-7.351 8.952-65.463 56.866-117.518 122.634-133.799 9.07 14.733 25.344 24.579 43.878 24.579 18.555 0 34.845-9.868 43.91-24.628 65.983 16.247 113.889 68.209 122.827 133.988.419 3.079 2.245 5.789 4.942 7.333 13.987 8.004 22.677 22.963 22.677 39.04.003 24.788-20.164 44.955-44.953 44.955z"/>
    <path id="XMLID_1036_"
          d="m168.016 145.212-9.121 9.121c-3.905 3.905-3.905 10.237 0 14.143 1.953 1.953 4.512 2.929 7.071 2.929s5.119-.976 7.071-2.929l9.121-9.121c3.905-3.905 3.905-10.237 0-14.143s-10.237-3.905-14.142 0z"/>
    <path id="XMLID_1251_"
          d="m253.49 145.212-9.121 9.121c-3.905 3.905-3.905 10.237 0 14.143 1.953 1.953 4.512 2.929 7.071 2.929s5.119-.976 7.071-2.929l9.121-9.121c3.905-3.905 3.905-10.237 0-14.143s-10.236-3.905-14.142 0z"/>
    <path id="XMLID_1974_"
          d="m338.964 145.213-9.121 9.121c-3.905 3.905-3.905 10.237 0 14.142 1.953 1.953 4.512 2.929 7.071 2.929s5.119-.977 7.071-2.929l9.121-9.121c3.905-3.905 3.905-10.237 0-14.142s-10.236-3.905-14.142 0z"/>
    <path id="XMLID_1975_"
          d="m256.001 467h.127c5.523 0 10-4.477 10-10s-4.477-10-10-10h-.127c-5.523 0-10 4.477-10 10s4.477 10 10 10z"/>
</svg>