<?xml version="1.0" ?>
<svg data-name="1" id="_1" viewBox="0 0 64 64" xmlns="http://www.w3.org/2000/svg">
    <defs>
        <style>
            .cls-1{fill:#ffaa66;}.cls-1,.cls-2,.cls-3{stroke:#45413c;stroke-linecap:round;stroke-linejoin:round;stroke-width:2px;}.cls-2{fill:#ff8844;}.cls-3{fill:#ff6600;}.cls-4{fill:#ffddaa;}
        </style>
    </defs>
    <title/>
    <polygon class="cls-1" points="46 8 18 8 4 32 18 56 46 56 60 32 46 8"/>
    <polygon class="cls-2" points="25 44 18 56 46 56 39 44 25 44"/>
    <polygon class="cls-3" points="4 32 18 56 25 44 18 32 4 32"/>
    <polygon class="cls-2" points="18 8 4 32 18 32 25 20 18 8"/>
    <polygon class="cls-3" points="39 20 46 8 18 8 25 20 39 20"/>
    <polygon class="cls-2" points="46 8 39 20 46 32 60 32 46 8"/>
    <polygon class="cls-3" points="46 32 39 44 46 56 60 32 46 32"/>
    <circle class="cls-4" cx="28" cy="27" r="3"/>
</svg>