<?xml version="1.0" ?>
<svg viewBox="0 0 50 50" xmlns="http://www.w3.org/2000/svg">
    <defs>
        <style>
            .a{fill:#ff5458;}.a,.b,.c,.d,.f{stroke:#45413c;stroke-linecap:round;stroke-linejoin:round;stroke-width:1.25px;}.b{fill:#bf2c30;}.c{fill:#ff7b7e;}.d{fill:#ff2328;}.e{fill:#ffb0b0;}.f{fill:none;}
        </style>
    </defs>
    <title/>
    <path class="a" d="M13.341,26.957C7.873,26.092,3.7,24.638,1.848,22.893l21.906,21.19a1.782,1.782,0,0,0,.757.436Z"/>
    <path class="b"
          d="M36.659,26.957,25.489,44.519a1.782,1.782,0,0,0,.757-.436L48.154,22.891C46.307,24.637,42.128,26.092,36.659,26.957Z"/>
    <path class="c"
          d="M19.321,12.194c-4.075-.592-6.866-1.8-6.866-3.2a1.232,1.232,0,0,1,.257-.725L1.349,20.3a1.465,1.465,0,0,0-.193,1.759c1.265,2.115,5.863,3.9,12.185,4.9Z"/>
    <path class="d"
          d="M48.651,20.3,37.288,8.272A1.232,1.232,0,0,1,37.545,9c0,1.4-2.791,2.605-6.866,3.2l5.98,14.763c6.322-1,10.92-2.788,12.185-4.9A1.465,1.465,0,0,0,48.651,20.3Z"/>
    <path class="a"
          d="M19.321,12.194l-5.98,14.763A75.628,75.628,0,0,0,25,27.815a75.628,75.628,0,0,0,11.659-.858l-5.98-14.763A39.9,39.9,0,0,1,25,12.582,39.9,39.9,0,0,1,19.321,12.194Z"/>
    <ellipse class="e" cx="25" cy="8.997" rx="12.545" ry="3.584"/>
    <ellipse class="f" cx="25" cy="8.997" rx="12.545" ry="3.584"/>
    <path class="d"
          d="M25,27.815a75.628,75.628,0,0,1-11.659-.858l11.17,17.562a1.805,1.805,0,0,0,.978,0l11.17-17.562A75.628,75.628,0,0,1,25,27.815Z"/>
    <path class="f"
          d="M48.651,20.3,37.288,8.272C36.114,6.64,31.059,5.413,25,5.413S13.886,6.64,12.712,8.272L1.349,20.3a1.465,1.465,0,0,0-.193,1.759,3.981,3.981,0,0,0,.692.839l21.906,21.19a1.792,1.792,0,0,0,2.492,0L48.154,22.891a3.966,3.966,0,0,0,.69-.837A1.465,1.465,0,0,0,48.651,20.3Z"/>
</svg>