<?xml version="1.0" ?>
<svg id="filled" viewBox="0 0 64 64" xmlns="http://www.w3.org/2000/svg">
    <defs>
        <style>
            .cls-1{fill:#F6AAF7;}.cls-1,.cls-2,.cls-3,.cls-4{stroke:#373737;stroke-miterlimit:10;}.cls-2{fill:#EA75DB;}.cls-3{fill:#FFCCFF;}.cls-4{fill:#F69BF7;}
        </style>
    </defs>
    <title/>
    <path class="cls-1" d="M22.8983,58.4729,19.7167,57.155A28.1828,28.1828,0,0,0,22.8983,58.4729Z"/>
    <path class="cls-1" d="M58.4279,41.2369l-1.2091,2.919A28.1715,28.1715,0,0,0,58.4279,41.2369Z"/>
    <path class="cls-1"
          d="M42.7151,57.8686c.54-.2238,1.066-.4673,1.5845-.72L41.0854,58.48C41.6309,58.292,42.1749,58.0924,42.7151,57.8686Z"/>
    <polygon class="cls-1"
             points="32.045 31.951 32.045 31.917 32.038 31.91 32 31.872 10.599 31.936 32 32 32.016 31.984 32.045 31.954 32.045 31.951"/>
    <path class="cls-1" d="M60.0024,31.9557l-.0007-.0394-6.59.02Z"/>
    <path class="cls-2" d="M32,32l-21.4007-.064-6.6029.02A28.0389,28.0389,0,0,0,12.14,51.7409Z"/>
    <polygon class="cls-1" points="32.045 31.954 32.016 31.984 32.045 31.955 32.045 31.954"/>
    <path class="cls-1" d="M32.1271,31.8723l21.2844.0637,6.59-.02a28.0435,28.0435,0,0,0-8.2586-19.7776Z"/>
    <path class="cls-1"
          d="M32.0451,32,32,32h0l.0162-.0163L32,32h0L12.1406,51.741a28,28,0,0,0,7.5762,5.414l3.1816,1.3178a28.0028,28.0028,0,0,0,9.0629,1.531Z"/>
    <polygon class="cls-1" points="12.141 51.741 32 32 32 32 12.14 51.741 12.141 51.741"/>
    <polygon class="cls-1" points="32.016 31.984 32 32 32 32 32.045 32 32.045 31.955 32.016 31.984"/>
    <polygon class="cls-1" points="32.045 31.917 32.045 31.951 32.045 31.917 32.045 31.917"/>
    <path class="cls-2" d="M32.1269,31.8723,51.743,12.1385A28.0914,28.0914,0,0,0,31.9618,3.9974l.0834,27.8747Z"/>
    <polygon class="cls-1" points="32.127 31.872 32.127 31.872 51.743 12.139 51.743 12.139 32.127 31.872"/>
    <path class="cls-2"
          d="M32.127,32l-.0819,0-.0837,28.004A27.8513,27.8513,0,0,0,41.0854,58.48L44.3,57.1483a27.8509,27.8509,0,0,0,7.5063-5.3515Z"/>
    <polygon class="cls-1"
             points="32.045 31.955 32.045 31.955 32.045 31.954 32.045 31.954 32.045 31.955 32.045 31.955 32.045 32 32.127 32 32.064 31.936 32.045 31.955"/>
    <polygon class="cls-1" points="31.961 60.004 31.961 60.004 32.045 32 32.045 32 31.961 60.004"/>
    <polygon class="cls-1" points="32.045 31.955 32.045 32 32.045 32 32.045 31.955 32.045 31.955"/>
    <polygon class="cls-1" points="32.045 31.917 32.045 31.951 32.045 31.954 32.064 31.936 32.045 31.917"/>
    <polygon class="cls-1"
             points="32.045 31.954 32.045 31.955 32.045 31.955 32.064 31.936 32.064 31.936 32.045 31.954"/>
    <path class="cls-1"
          d="M32,31.872h0l.0387.0385L32,31.8719h.0448L31.9616,3.9974a28.0372,28.0372,0,0,0-19.7578,8.1964L32,31.8719Z"/>
    <polygon class="cls-1" points="32.045 31.872 31.962 3.997 31.962 3.997 32.045 31.872 32.045 31.872"/>
    <path class="cls-3"
          d="M32.1271,32l19.6789,19.797a28.0053,28.0053,0,0,0,5.4127-7.6407l1.2091-2.919a28.0042,28.0042,0,0,0,1.5745-9.2812l-6.5908-.02Z"/>
    <polygon class="cls-1" points="32.038 31.91 32.045 31.917 32.045 31.917 32.038 31.91"/>
    <polygon class="cls-1" points="32.127 32 53.412 31.936 32.127 31.872 32.064 31.936 32.127 32"/>
    <polygon class="cls-1"
             points="32.045 31.917 32.045 31.917 32.045 31.917 32.045 31.917 32.045 31.917 32.045 31.917 32.064 31.936 32.127 31.872 32.045 31.872 32.045 31.917"/>
    <polygon class="cls-1" points="32.064 31.936 32.064 31.936 32.127 31.872 32.127 31.872 32.064 31.936"/>
    <polygon class="cls-1" points="51.806 51.797 51.806 51.797 32.127 32 32.127 32 51.806 51.797"/>
    <polygon class="cls-1" points="32.064 31.936 32.127 32 32.127 32 32.064 31.936 32.064 31.936"/>
    <polygon class="cls-1" points="32.045 31.917 32.064 31.936 32.064 31.936 32.045 31.917 32.045 31.917"/>
    <polygon class="cls-1" points="32.045 31.872 32 31.872 32.038 31.91 32.045 31.917 32.045 31.872"/>
    <polygon class="cls-1"
             points="32.045 31.917 32.045 31.917 32.045 31.872 32.045 31.872 32.045 31.917 32.045 31.917"/>
    <path class="cls-3" d="M12.2036,12.194A28.0917,28.0917,0,0,0,3.9954,31.9162l6.6036.02L32,31.872Z"/>
    <path class="cls-1" d="M3.996,31.9557l6.6029-.02-6.6036-.02C3.9954,31.9294,3.9961,31.9426,3.996,31.9557Z"/>
    <polygon class="cls-1" points="32 31.872 32 31.872 12.204 12.194 12.204 12.194 32 31.872 32 31.872"/>
    <polygon class="cls-4"
             points="32 14.682 19.754 19.754 14.682 32 19.754 44.246 32 49.318 44.246 44.246 49.318 32 44.246 19.754 32 14.682"/>
    <circle style="fill:#fdf;" cx="27.5" cy="27.5" r="5"/>
</svg>