<?xml version="1.0" ?>
<svg height="60" id="Holidays" viewBox="0 0 60 60" width="60" xmlns="http://www.w3.org/2000/svg">
    <title/>
    <polygon points="55 19.29 42 24.86 35.14 18 40.71 5 55 19.29" style="fill:#999"/>
    <polygon points="55 19.29 55 40.71 42 35.14 42 24.86 55 19.29" style="fill:#999"/>
    <polygon points="55 40.71 40.71 55 35.14 42 42 35.14 55 40.71" style="fill:#999"/>
    <polygon points="35.14 42 40.71 55 19.29 55 24.86 42 35.14 42" style="fill:#999"/>
    <polygon points="24.86 42 19.29 55 5 40.71 18 35.14 24.86 42" style="fill:#999"/>
    <polygon points="18 24.86 18 35.14 5 40.71 5 19.29 18 24.86" style="fill:#999"/>
    <polygon points="19.29 5 24.86 18 18 24.86 5 19.29 19.29 5" style="fill:#999"/>
    <polygon points="40.71 5 35.14 18 24.86 18 19.29 5 40.71 5" style="fill:#ccc"/>
    <polygon points="42 24.86 42 35.14 35.14 42 24.86 42 18 35.14 18 24.86 24.86 18 35.14 18 42 24.86"
             style="fill:#bbb"/>
    <polygon points="24.86 42 5 40.714 19.286 55 40.714 55 55 40.714 36 42 24.86 42"
             style="fill:#000;fill-rule:evenodd;opacity:0.1"/>
    <polygon points="40.714 5 19.286 5 5 19.286 24.86 18 36 18 55 19.286 40.714 5"
             style="fill:#fff;fill-rule:evenodd;opacity:0.3"/>
    <polygon points="55 19 42 24.86 42 34 55 19" style="fill:#fff;fill-rule:evenodd;opacity:0.3"/>
    <polygon points="5 20 18 25.86 18 35 5 20" style="fill:#fff;fill-rule:evenodd;opacity:0.3"/>
    <path d="M40.71436,56H19.28564a1.00013,1.00013,0,0,1-.707-.293L4.293,41.42139a1.00013,1.00013,0,0,1-.293-.707V19.28564a1.00013,1.00013,0,0,1,.293-.707L18.57861,4.293a1.00013,1.00013,0,0,1,.707-.293H40.71436a1.00013,1.00013,0,0,1,.707.293L55.707,18.57861a1.00013,1.00013,0,0,1,.293.707V40.71436a1.00013,1.00013,0,0,1-.293.707L41.42139,55.707A1.00013,1.00013,0,0,1,40.71436,56ZM19.69971,54H40.30029L54,40.30029V19.69971L40.30029,6H19.69971L6,19.69971V40.30029Z"
          style="fill:#45413c"/>
    <path d="M35.14307,43H24.85693a1.00013,1.00013,0,0,1-.707-.293L17.293,35.8501a1.00013,1.00013,0,0,1-.293-.707V24.85693a1.00013,1.00013,0,0,1,.293-.707L24.1499,17.293a1.00013,1.00013,0,0,1,.707-.293H35.14307a1.00013,1.00013,0,0,1,.707.293L42.707,24.1499a1.00013,1.00013,0,0,1,.293.707V35.14307a1.00013,1.00013,0,0,1-.293.707L35.8501,42.707A1.00013,1.00013,0,0,1,35.14307,43ZM25.271,41h9.458L41,34.729V25.271L34.729,19H25.271L19,25.271v9.458Z"
          style="fill:#45413c"/>
    <path d="M24.85742,19.00049A.99993.99993,0,0,1,23.938,18.394l-5.57129-13A.99987.99987,0,1,1,20.20459,4.606l5.57129,13a1.00118,1.00118,0,0,1-.91846,1.39453Z"
          style="fill:#45413c"/>
    <path d="M35.14258,19.00049a1.00118,1.00118,0,0,1-.91846-1.39453l5.57129-13A.99987.99987,0,1,1,41.6333,5.394l-5.57129,13A.99993.99993,0,0,1,35.14258,19.00049Z"
          style="fill:#45413c"/>
    <path d="M17.99951,25.85742a.99577.99577,0,0,1-.39355-.08154l-13-5.57129A.99987.99987,0,1,1,5.394,18.3667l13,5.57129a1.00027,1.00027,0,0,1-.39453,1.91943Z"
          style="fill:#45413c"/>
    <path d="M5.00049,41.71484A1.00027,1.00027,0,0,1,4.606,39.79541l13-5.57129A.99987.99987,0,0,1,18.394,36.062l-13,5.57129A.99577.99577,0,0,1,5.00049,41.71484Z"
          style="fill:#45413c"/>
    <path d="M42.00049,25.85742A1.00027,1.00027,0,0,1,41.606,23.938l13-5.57129a.99987.99987,0,1,1,.78809,1.83789l-13,5.57129A.99577.99577,0,0,1,42.00049,25.85742Z"
          style="fill:#45413c"/>
    <path d="M54.99951,41.71484a.99577.99577,0,0,1-.39355-.08154l-13-5.57129a.99987.99987,0,0,1,.78809-1.83789l13,5.57129a1.00027,1.00027,0,0,1-.39453,1.91943Z"
          style="fill:#45413c"/>
    <path d="M40.71484,56.00049a.99993.99993,0,0,1-.91943-.60645l-5.57129-13A.99987.99987,0,0,1,36.062,41.606l5.57129,13a1.00118,1.00118,0,0,1-.91846,1.39453Z"
          style="fill:#45413c"/>
    <path d="M19.28516,56.00049A1.00118,1.00118,0,0,1,18.3667,54.606l5.57129-13a.99987.99987,0,0,1,1.83789.78809l-5.57129,13A.99993.99993,0,0,1,19.28516,56.00049Z"
          style="fill:#45413c"/>
</svg>