<svg id="Capa_1" enable-background="new 0 0 512 512" height="512" viewBox="0 0 512 512" width="512"
     xmlns="http://www.w3.org/2000/svg">
    <g>
        <g>
            <g>
                <path d="m406.786 83.589c29.054 29.054 64.293 27.25 64.293 13.96s-20.179-7.639-25.83-13.29 13.795-8.962 10.14-17.159-23.572 2.161-29.508-3.775 4.422-25.853-3.775-29.508c-8.196-3.655-11.508 15.791-17.159 10.14s0-25.83-13.29-25.83-15.094 35.24 13.96 64.293"
                      fill="#b3e59f"/>
                <path d="m405.935 82.737-.313-.313c-29.055-29.055-27.251-64.297-13.962-64.294 13.291 0 7.639 20.179 13.291 25.831.558.558 1.092.871 1.611.984-6.906 9.291-11.034 27.385-.627 37.792z"
                      fill="#95d6a4"/>
                <path d="m407.693 81.514c-27.219-27.219-49.721-48.848-76.94-21.629-5.828 5.828-11.399 13.42-16.289 22.026-9.84 17.31-16.927 38.712-17.793 58.039-.123 2.67-.123 5.301 0 7.877.628 12.792 4.402 24.206 12.453 32.256 11.937 11.937 31.282 14.477 51.54 11.276 25.941-4.099 53.376-17.62 68.658-32.902 27.219-27.219 5.594-49.725-21.629-76.943z"
                      fill="#f99"/>
                <path d="m309.123 180.082c-27.22-27.22-5.591-92.975 21.629-120.196 27.22-27.22 49.721-5.595 76.941 21.626-12.747-12.747-23.518-22.644-50.739 4.577-27.22 27.22-60.578 81.246-47.831 93.993z"
                      fill="#e77"/>
            </g>
            <g>
                <path d="m185.318 83.589c29.054 29.054 64.293 27.25 64.293 13.96s-20.179-7.639-25.83-13.29 13.795-8.962 10.14-17.159c-3.655-8.196-23.572 2.161-29.508-3.775s4.422-25.853-3.775-29.508-11.508 15.791-17.159 10.14 0-25.83-13.29-25.83-15.093 35.24 13.96 64.293"
                      fill="#b3e59f"/>
                <path d="m184.467 82.737-.313-.313c-29.055-29.055-27.251-64.297-13.962-64.294 13.291 0 7.639 20.179 13.291 25.831.558.558 1.092.871 1.611.984-6.906 9.291-11.034 27.385-.627 37.792z"
                      fill="#95d6a4"/>
                <path d="m186.225 81.514c-27.219-27.219-49.721-48.848-76.94-21.629-5.828 5.828-11.399 13.42-16.289 22.026-9.84 17.31-16.927 38.712-17.793 58.039-.123 2.67-.123 5.301 0 7.877.628 12.792 4.402 24.206 12.453 32.256 11.937 11.937 31.282 14.477 51.54 11.276 25.941-4.099 53.377-17.62 68.658-32.902 27.219-27.219 5.594-49.725-21.629-76.943z"
                      fill="#f99"/>
                <path d="m87.655 180.082c-27.22-27.22-5.591-92.975 21.629-120.196 27.22-27.22 49.721-5.595 76.941 21.626-12.747-12.747-23.518-22.644-50.739 4.577-27.22 27.22-60.578 81.246-47.831 93.993z"
                      fill="#e77"/>
            </g>
            <path d="m467.863 486.138c-126.839 9.1-253.677 10.2-380.526 3.289-17.442-.934-34.874-2.034-52.317-3.289-13.697-81.246-15.575-162.502-5.634-243.758 1.577-12.887 3.455-25.785 5.634-38.683 144.281-10.356 288.562-10.356 432.843 0 15.875 94.144 15.875 188.297 0 282.441z"
                  fill="#f9efda"/>
            <path d="m87.336 489.427c-17.442-.934-34.874-2.034-52.317-3.289-13.697-81.246-15.575-162.502-5.634-243.758l48.218 30.776s-13.281 143.741 9.733 216.271z"
                  fill="#f6e4c1"/>
            <path d="m475.282 431.6c-1.878 18.179-4.358 36.358-7.419 54.537-126.839 9.1-253.677 10.2-380.526 3.289-17.442-.934-34.874-2.034-52.317-3.289-3.061-18.179-5.541-36.358-7.419-54.537 16.467 1.141 32.934 2.148 49.401 3.03 132.753 7.159 265.516 6.143 398.28-3.03z"
                  fill="#e7a561"/>
            <path d="m87.336 489.427c-17.442-.934-34.874-2.034-52.317-3.289-3.061-18.179-5.541-36.358-7.419-54.537 16.467 1.141 32.934 2.148 49.401 3.03 2.086 20.139 5.365 39.128 10.335 54.796z"
                  fill="#e49542"/>
            <path d="m504.5 241.796v-18.132c0-23.91-19.383-43.293-43.293-43.293h-410.414c-23.91 0-43.293 19.383-43.293 43.293v18.132c0 37.519 8.717 69.772 52.971 69.772s52.124-52.493 87.158-52.493 40.787 59.734 108.37 59.734 73.336-59.734 108.37-59.734 42.904 52.493 87.158 52.493 52.973-32.254 52.973-69.772z"
                  fill="#f79"/>
            <path d="m67.717 223.66v18.138c0 18.76 2.179 36.193 9.888 48.955 2.853 4.732 6.475 8.81 11.03 12.078-7.678 5.219-16.695 8.737-28.161 8.737-22.132 0-35.372-8.062-43.082-20.815-7.71-12.763-9.889-30.195-9.889-48.955v-18.138c0-23.907 19.383-43.289 43.29-43.289h60.213c-23.906 0-43.289 19.382-43.289 43.289z"
                  fill="#f57"/>
        </g>
        <g>
            <path d="m358.811 87.945c2.929-2.929 2.929-7.678 0-10.606-2.929-2.929-7.678-2.929-10.606 0l-7.147 7.147c-2.929 2.929-2.929 7.678 0 10.606 1.464 1.464 3.384 2.197 5.303 2.197s3.839-.732 5.303-2.197z"/>
            <path d="m374.734 103.868-7.147 7.147c-2.929 2.929-2.929 7.678 0 10.606 1.464 1.464 3.384 2.197 5.303 2.197s3.839-.732 5.303-2.197l7.147-7.147c2.929-2.929 2.929-7.678 0-10.606-2.928-2.928-7.677-2.928-10.606 0z"/>
            <path d="m399.419 150.349c1.919 0 3.839-.732 5.303-2.197l7.147-7.147c2.929-2.929 2.929-7.678 0-10.606-2.929-2.929-7.678-2.929-10.606 0l-7.147 7.147c-2.929 2.929-2.929 7.678 0 10.606 1.465 1.464 3.384 2.197 5.303 2.197z"/>
            <path d="m330.872 121.201-7.147 7.147c-2.929 2.929-2.929 7.678 0 10.606 1.464 1.464 3.384 2.197 5.303 2.197s3.839-.732 5.303-2.197l7.147-7.147c2.929-2.929 2.929-7.678 0-10.606-2.929-2.929-7.678-2.929-10.606 0z"/>
            <path d="m357.401 147.731-7.147 7.147c-2.929 2.929-2.929 7.678 0 10.606 1.464 1.464 3.384 2.197 5.303 2.197s3.839-.732 5.303-2.197l7.147-7.147c2.929-2.929 2.929-7.678 0-10.606-2.928-2.929-7.677-2.929-10.606 0z"/>
            <path d="m126.736 77.338-7.148 7.147c-2.929 2.929-2.929 7.678 0 10.607 1.465 1.464 3.384 2.197 5.304 2.197 1.919 0 3.839-.732 5.303-2.196l7.148-7.147c2.929-2.929 2.929-7.678 0-10.607s-7.677-2.929-10.607-.001z"/>
            <path d="m156.725 121.622 7.147-7.147c2.929-2.929 2.929-7.678 0-10.606-2.929-2.929-7.678-2.929-10.606 0l-7.147 7.147c-2.929 2.929-2.929 7.678 0 10.606 1.464 1.464 3.384 2.197 5.303 2.197s3.839-.732 5.303-2.197z"/>
            <path d="m183.255 148.152 7.147-7.147c2.929-2.929 2.929-7.678 0-10.606-2.929-2.929-7.678-2.929-10.606 0l-7.147 7.147c-2.929 2.929-2.929 7.678 0 10.606 1.464 1.464 3.384 2.197 5.303 2.197s3.839-.733 5.303-2.197z"/>
            <path d="m109.404 121.201-7.147 7.147c-2.929 2.929-2.929 7.678 0 10.606 1.464 1.464 3.384 2.197 5.303 2.197s3.839-.732 5.303-2.197l7.147-7.147c2.929-2.929 2.929-7.678 0-10.606-2.928-2.929-7.677-2.929-10.606 0z"/>
            <path d="m135.934 147.731-7.147 7.147c-2.929 2.929-2.929 7.678 0 10.606 1.464 1.464 3.384 2.197 5.303 2.197s3.839-.732 5.303-2.197l7.147-7.147c2.929-2.929 2.929-7.678 0-10.606-2.929-2.929-7.678-2.929-10.606 0z"/>
            <path d="m435.518 396.871-.381.402c-2.85 3.006-2.722 7.753.284 10.603 1.45 1.375 3.306 2.057 5.158 2.057 1.987 0 3.97-.785 5.445-2.341l.381-.402c2.85-3.006 2.722-7.753-.284-10.603-3.007-2.85-7.754-2.722-10.603.284z"/>
            <path d="m453.33 382.005c2.85-3.006 2.722-7.753-.284-10.603s-7.753-2.723-10.603.284l-.381.402c-2.85 3.006-2.722 7.753.284 10.603 1.45 1.375 3.306 2.057 5.158 2.057 1.987 0 3.97-.785 5.445-2.341z"/>
            <path d="m416.506 378.853-.381.402c-2.85 3.006-2.722 7.753.284 10.603 1.45 1.375 3.306 2.057 5.158 2.057 1.987 0 3.97-.785 5.445-2.341l.381-.402c2.85-3.006 2.722-7.753-.284-10.603s-7.754-2.722-10.603.284z"/>
            <path d="m64.962 358.97-.381.402c-2.85 3.006-2.722 7.753.284 10.603 1.45 1.375 3.306 2.057 5.158 2.057 1.987 0 3.97-.785 5.445-2.341l.381-.402c2.85-3.006 2.722-7.753-.284-10.603s-7.753-2.723-10.603.284z"/>
            <path d="m82.774 344.104c2.85-3.006 2.722-7.753-.284-10.603s-7.753-2.723-10.603.284l-.381.402c-2.85 3.006-2.722 7.753.284 10.603 1.45 1.375 3.306 2.057 5.158 2.057 1.987 0 3.97-.785 5.445-2.341z"/>
            <path d="m45.951 340.952-.381.402c-2.85 3.006-2.722 7.753.284 10.603 1.45 1.375 3.306 2.057 5.158 2.057 1.987 0 3.97-.785 5.445-2.341l.381-.402c2.85-3.006 2.722-7.753-.284-10.603s-7.754-2.722-10.603.284z"/>
            <path d="m461.207 172.87h-37.276c3.98-2.944 7.584-6.002 10.692-9.11 14.575-14.574 18.335-30.308 11.178-46.764-.576-1.325-1.237-2.643-1.937-3.958 3.931.835 7.744 1.265 11.326 1.265 5.641 0 10.713-1.061 14.78-3.259 5.472-2.958 8.61-7.876 8.61-13.497-.003-14.564-13.977-16.588-21.149-17.473 3.961-3.412 8.047-8.769 4.809-16.029-4.233-9.49-15.488-7.964-22.937-6.952-2.318.315-5.949.806-7.847.66-.148-1.9.345-5.531.659-7.85 1.011-7.448 2.538-18.703-6.951-22.934-7.262-3.24-12.618.847-16.031 4.808-.885-7.175-2.91-21.148-17.473-21.148-5.619 0-10.539 3.139-13.497 8.611-3.595 6.65-4.143 15.988-1.992 26.107-1.316-.701-2.635-1.362-3.961-1.939-16.457-7.159-32.191-3.4-46.77 11.179-6.195 6.207-12.248 14.372-17.502 23.612-11.041 19.423-17.879 41.806-18.762 61.41-.13 2.887-.13 5.769.001 8.586.463 9.405 2.419 17.648 5.815 24.674h-92.533c3.98-2.944 7.584-6.002 10.692-9.11 14.574-14.574 18.335-30.308 11.18-46.764-.576-1.325-1.237-2.643-1.937-3.958 3.931.835 7.744 1.265 11.326 1.265 5.641 0 10.713-1.061 14.78-3.259 5.472-2.958 8.61-7.876 8.61-13.497-.003-14.564-13.977-16.588-21.15-17.473 3.961-3.412 8.047-8.769 4.81-16.029-4.233-9.49-15.488-7.964-22.937-6.952-2.317.315-5.947.806-7.847.66-.148-1.9.345-5.532.659-7.85 1.01-7.447 2.538-18.702-6.951-22.934-7.262-3.24-12.619.847-16.031 4.808-.885-7.175-2.911-21.148-17.474-21.148-5.619 0-10.538 3.139-13.496 8.611-3.596 6.654-4.144 15.996-1.989 26.122-11.662-6.221-23.866-8.029-36.947-1.205-3.672 1.916-5.096 6.446-3.18 10.119 1.916 3.672 6.443 5.096 10.119 3.18 16.465-8.591 32.227 5.363 56.228 29.364 31.25 31.25 41.955 45.999 21.62 66.333-7.166 7.166-17.571 14.13-29.415 19.717h-81.899c-5.135-6.142-8.01-14.667-8.538-25.392-.109-2.342-.109-4.763 0-7.194.768-17.047 7.058-37.484 16.827-54.67 1.997-3.511 4.104-6.833 6.265-9.875 2.399-3.377 1.606-8.059-1.771-10.458-3.375-2.399-8.059-1.605-10.458 1.771-2.451 3.45-4.831 7.2-7.076 11.147-11.048 19.436-17.891 41.818-18.772 61.41-.13 2.887-.13 5.769.001 8.586.463 9.405 2.421 17.648 5.819 24.674h-22.734c-28.007.002-50.793 22.788-50.793 50.796v18.132c0 20.344 2.362 44.796 16.69 60.667-3.072 61.383.593 123.577 10.934 184.92.575 3.411 3.408 5.986 6.858 6.234 71.981 5.168 144.469 7.752 216.957 7.752s144.976-2.584 216.957-7.752c3.45-.248 6.283-2.823 6.858-6.234 6.728-39.892 10.668-80.343 11.712-120.231.108-4.141-3.161-7.585-7.301-7.694-4.126-.095-7.585 3.16-7.694 7.301-.502 19.169-1.69 38.473-3.542 57.781-144.025 9.668-289.955 9.668-433.97.001-3.549-37.115-4.632-74.335-3.235-111.29 7.727 3.68 17.326 5.814 29.245 5.814 26.758 0 41.592-16.482 54.68-31.023 10.369-11.521 19.323-21.47 32.479-21.47 11.352 0 19.468 8.909 29.742 20.188 16.049 17.619 36.022 39.545 78.628 39.545s62.579-21.927 78.628-39.545c10.274-11.279 18.39-20.188 29.742-20.188 13.156 0 22.11 9.949 32.479 21.47 13.087 14.542 27.921 31.023 54.68 31.023 7.665 0 14.37-.883 20.236-2.491.232 6.788.39 13.633.456 20.464.04 4.117 3.39 7.428 7.498 7.428h.074c4.142-.04 7.467-3.43 7.427-7.572-.086-8.99-.325-18.005-.693-26.884 22.205-14.635 25.475-44.27 25.475-68.214v-18.132c0-28.008-22.786-50.794-50.793-50.794zm-282.976-109.656c-12.054-18.897-10.622-35.164-7.856-37.582.38.013.556.062.564.051.991.991 1.579 5.795 1.895 8.383.676 5.519 1.374 11.225 5.344 15.195 3.146 3.146 6.521 3.354 8.251 3.195 4.575-.415 7.419-3.716 9.653-6.842-.101.819-.208 1.603-.298 2.273-.976 7.188-2.081 15.336 3.327 20.744 5.408 5.409 13.556 4.302 20.743 3.327.67-.091 1.454-.197 2.272-.299-3.126 2.234-6.427 5.078-6.842 9.652-.157 1.731.049 5.105 3.194 8.25 3.971 3.971 9.679 4.67 15.198 5.346 2.6.318 7.439.91 8.344 1.831 0 .002.073.175.089.629-2.421 2.764-18.693 4.194-37.59-7.862-4.185-4.483-8.608-8.913-12.987-13.292-4.397-4.397-8.824-8.821-13.301-12.999zm213.612-37.581c.375.013.558.06.564.051.991.991 1.579 5.795 1.895 8.382.676 5.519 1.374 11.226 5.344 15.195 3.146 3.146 6.519 3.354 8.251 3.195 4.576-.415 7.419-3.716 9.653-6.843-.101.819-.208 1.603-.298 2.273-.976 7.188-2.081 15.336 3.327 20.744 5.409 5.409 13.556 4.302 20.743 3.327.67-.091 1.454-.197 2.273-.299-3.126 2.234-6.427 5.077-6.842 9.652-.157 1.731.049 5.105 3.194 8.25 3.971 3.971 9.679 4.67 15.198 5.346 2.6.318 7.438.91 8.344 1.831 0 .002.073.175.089.629-2.421 2.765-18.696 4.195-37.599-7.868-4.185-4.481-8.608-8.909-12.986-13.286-4.375-4.375-8.8-8.793-13.279-12.976-12.071-18.906-10.638-35.185-7.871-37.603zm-87.681 121.845c-.109-2.342-.109-4.763 0-7.194.769-17.059 7.056-37.497 16.817-54.67 4.602-8.092 9.815-15.156 15.074-20.424 10.333-10.332 19.357-12.731 30.175-8.026 11.51 5.007 24.041 17.538 36.16 29.657 12.118 12.114 24.649 24.641 29.658 36.157 4.705 10.818 2.304 19.842-8.029 30.175-7.166 7.167-17.571 14.131-29.415 19.717h-81.911c-5.129-6.136-8.001-14.662-8.529-25.392zm-52.724 299.322c71.955 0 143.909-2.377 215.403-7.118-1.5 13.158-3.302 26.303-5.416 39.392-139.368 9.729-280.6 9.729-419.968 0-2.115-13.099-3.903-26.236-5.399-39.391 71.482 4.74 143.43 7.117 215.38 7.117zm245.562-205.004c0 44.23-13.174 62.271-45.471 62.271-20.078 0-31.47-12.657-43.53-26.058-11.697-12.997-23.792-26.436-43.628-26.436-17.979 0-29.079 12.186-40.832 25.087-14.793 16.24-31.559 34.646-67.539 34.646s-52.746-18.407-67.539-34.646c-11.752-12.901-22.853-25.087-40.832-25.087-19.836 0-31.931 13.439-43.628 26.436-12.061 13.4-23.453 26.058-43.53 26.058-32.297 0-45.471-18.041-45.471-62.271v-18.132c0-19.736 16.057-35.793 35.793-35.793h36.988c.069.002.139.009.208.009.061 0 .122-.008.184-.009h373.034c19.736 0 35.793 16.057 35.793 35.793z"/>
        </g>
    </g>
</svg>