<svg enable-background="new 0 0 32 32" height="512" viewBox="0 0 32 32" width="512" xmlns="http://www.w3.org/2000/svg">
    <g id="Layer_15">
        <path d="m28.86 13.52v15.33c0 .64-.51 1.15-1.15 1.15h-23.42c-.64 0-1.15-.51-1.15-1.15v-15.33c0-.63.51-1.15 1.15-1.15h23.42c.64 0 1.15.52 1.15 1.15z"
              fill="#ffbd7b"/>
        <path d="m5.16 21.55h-2.02v-8.03c0-.63.51-1.15 1.15-1.15h2.02c-.63 0-1.15.52-1.15 1.15z" fill="#ffd3a6"/>
        <path d="m6.31 30h-2.02c-.64 0-1.15-.51-1.15-1.15v-4.98h2.02v4.98c0 .64.52 1.15 1.15 1.15z" fill="#ffd3a6"/>
        <path d="m3.141 21.549h25.718v2.321h-25.718z" fill="#c2d9f0"/>
        <path d="m3.14 21.55h2.02v2.32h-2.02z" fill="#e3ecf4"/>
        <path d="m28.86 13.52v2.831c0 1.377-1.329 2.359-2.647 1.961-.877-.265-1.741-.478-2.593.018-.92.53-1.98.82-3.06.82-1.1 0-2.16-.29-3.07-.83-.887-.528-2.123-.502-3.01.01-.88.53-1.94.82-3.04.82-1.08 0-2.14-.29-3.06-.83-.88-.496-1.767-.254-2.667.019-1.28.389-2.573-.569-2.573-1.907v-2.912c0-.63.51-1.15 1.15-1.15h23.42c.64 0 1.15.52 1.15 1.15z"
              fill="#faa157"/>
        <path d="m2.316 13.521v1.99c0 1.208 1.204 2.054 2.336 1.634 1.431-.53 2.707-1.153 4.484-.116.681.399 1.465.621 2.308.621.828 0 1.627-.222 2.293-.621.695-.399 1.479-.592 2.263-.592s1.568.192 2.263.592c.666.399 1.465.621 2.293.621.843 0 1.627-.222 2.308-.621 1.777-1.036 3.053-.413 4.484.116 1.133.419 2.336-.427 2.336-1.634v-1.99c0-.633-.514-1.147-1.147-1.147h-25.074c-.634 0-1.147.514-1.147 1.147z"
              fill="#acf"/>
        <path d="m3.894 17.09v-2.498c0-.353.286-.639.639-.639h25.151v-.431c0-.633-.514-1.147-1.147-1.147h-25.074c-.633 0-1.147.514-1.147 1.147v1.99c0 .943.736 1.656 1.597 1.728-.005-.051-.019-.098-.019-.15z"
              fill="#cef"/>
        <circle cx="15.997" cy="8.838" fill="#acf" r="3.536"/>
        <path d="m16.843 12.273c-.449.115-.923.128-1.411.051-1.937-.308-3.245-2.129-2.924-4.053.308-1.937 2.129-3.232 4.053-2.924.09.013.192.039.282.051-1.347.333-2.411 1.424-2.655 2.873-.295 1.834.885 3.578 2.655 4.002z"
              fill="#cef"/>
        <path d="m28.537 11.874h-9.893c.685-.596 1.177-1.421 1.335-2.385.337-2.065-.973-4.008-2.955-4.533-.048-.605-.018-1.988 1.192-2.495.255-.107.374-.4.268-.655-.106-.254-.398-.375-.654-.268-1.517.635-1.852 2.182-1.814 3.277-.846-.005-1.673.242-2.374.746-.875.629-1.453 1.562-1.626 2.625-.175 1.063.076 2.131.705 3.007.184.256.401.478.632.68h-9.89c-.908 0-1.647.739-1.647 1.647v1.99c0 .671.312 1.293.824 1.717v11.623c0 .91.74 1.65 1.65 1.65h23.42c.91 0 1.65-.74 1.65-1.65v-11.621c.512-.424.824-1.047.824-1.717v-1.99c.001-.909-.739-1.648-1.647-1.648zm-15.536-3.526c.131-.8.565-1.501 1.224-1.975.521-.375 1.135-.572 1.766-.572.164 0 .33.014.496.041 1.651.27 2.776 1.833 2.507 3.485-.271 1.652-1.834 2.779-3.486 2.505-.801-.13-1.502-.565-1.975-1.223-.474-.657-.663-1.461-.532-2.261zm-9.361 13.701h24.72v1.321h-24.72zm24.72-1h-24.72v-3.347c.393.075.801.055 1.187-.087l.327-.123c1.281-.485 2.295-.87 3.729-.03 1.543.906 3.616.894 5.103.002 1.195-.688 2.843-.683 4.021-.005.755.453 1.637.692 2.551.692.906 0 1.792-.238 2.56-.689 1.435-.835 2.447-.453 3.73.03l.327.123c.384.143.793.162 1.187.087v3.347zm-25.545-7.528c0-.357.29-.647.647-.647h25.074c.357 0 .647.29.647.647v1.99c0 .413-.194.784-.534 1.021-.336.235-.749.286-1.129.145l-.32-.121c-1.348-.51-2.739-1.037-4.589.042-1.245.73-2.879.73-4.099-.002-.749-.43-1.618-.658-2.513-.658s-1.764.228-2.521.663c-1.202.723-2.844.729-4.091-.003-1.847-1.077-3.24-.55-4.588-.041l-.321.121c-.381.142-.794.089-1.129-.145-.34-.236-.534-.608-.534-1.021v-1.991zm24.895 15.979h-23.42c-.364 0-.65-.286-.65-.65v-4.48h24.72v4.479c0 .365-.286.651-.65.651z"/>
    </g>
</svg>