<svg id="Layer1" enable-background="new 0 0 64 64" height="512" viewBox="0 0 64 64" width="512"
     xmlns="http://www.w3.org/2000/svg">
    <g id="Color_34_">
        <circle cx="51" cy="14" fill="#f82938" r="5"/>
        <path d="m55.903 14.965c-.45 2.299-2.472 4.035-4.903 4.035-2.761 0-5-2.239-5-5 0-1.735.886-3.262 2.228-4.159-2.841-1.184-5.958-1.841-9.228-1.841l-38 24h62c0-6.661-2.715-12.687-7.097-17.035z"
              fill="#fcc"/>
        <path d="m1 32h62v9h-62z" fill="#f09e3e"/>
        <path d="m1 41h62v9h-62z" fill="#ffc4c8"/>
        <path d="m1 50h62v9h-62z" fill="#f09e3e"/>
        <path d="m49.894 32-5.967 9h19.073v-9z" fill="#d68033"/>
        <path d="m43.927 41-5.967 9h25.04v-9z" fill="#fe99a0"/>
        <path d="m37.96 50-5.968 9h31.008v-9z" fill="#d68033"/>
    </g>
    <g id="line_7_">
        <circle cx="55" cy="23" r="1"/>
        <circle cx="50" cy="28" r="1"/>
        <circle cx="60" cy="28" r="1"/>
        <circle cx="45" cy="23" r="1"/>
        <circle cx="40" cy="28" r="1"/>
        <path d="m56.966 14.629c.022-.207.034-.416.034-.629 0-2.29-1.291-4.283-3.182-5.294 1.082-1.054 2.556-1.706 4.182-1.706.552 0 1-.448 1-1s-.448-1-1-1c-2.541 0-4.805 1.195-6.272 3.049-.239-.029-.481-.049-.728-.049-1.038 0-2.016.266-2.868.732-2.912-1.145-5.98-1.732-9.132-1.732-.189 0-.374.054-.534.154l-38 24c-.042.027-.466.349-.466.846v27c0 .552.448 1 1 1h62c.552 0 1-.448 1-1v-27c0-6.539-2.497-12.684-7.034-17.371zm5.034 25.371h-60v-7h60zm-60 2h60v7h-60zm49-28c.552 0 1-.448 1-1 0-.951.228-1.848.624-2.648 1.397.625 2.376 2.022 2.376 3.648 0 2.206-1.794 4-4 4s-4-1.794-4-4c0-2.059 1.57-3.74 3.573-3.957-.366.916-.573 1.912-.573 2.957 0 .552.448 1 1 1zm-11.713-4.998c2.423.029 4.786.452 7.058 1.22-.84 1.032-1.345 2.347-1.345 3.778 0 3.309 2.691 6 6 6 2.278 0 4.263-1.276 5.279-3.15 3.472 3.947 5.477 8.882 5.701 14.15h-57.524zm-37.287 48.998v-7h60v7z"/>
    </g>
</svg>