<?xml version="1.0" ?>
<svg height="60" id="Food_1" viewBox="0 0 60 60" width="60" xmlns="http://www.w3.org/2000/svg">
    <title/>
    <path d="M18.0752,18.32758a17.55071,17.55071,0,0,1,20.662-3.3791c.0045-5.5435,1.2093-13.3429,5.296-13.8007a4.22328,4.22328,0,0,1,3.4363,1.3577c2.2421,2.2421,2.1396,5.5748,2.5767,7.575,1.9998.435,5.3304.3321,7.575,2.5767a4.2273,4.2273,0,0,1,1.3565,3.4351c-.4615,4.0846-8.2581,5.2906-13.8024,5.2943a17.55819,17.55819,0,0,1-3.3774,20.6637,17.5708,17.5708,0,0,1-20.5373,3.4485c-.0313,5.5264-1.256,13.1482-5.2938,13.6044a4.23169,4.23169,0,0,1-3.4327-1.359c-2.2445-2.2445-2.1417-5.5751-2.57839-7.5733-1.99938-.4379-5.33117-.3362-7.5733-2.5784a4.22781,4.22781,0,0,1-1.36015-3.4339C1.476,40.12,9.09855,38.89438,14.625,38.86318A17.56876,17.56876,0,0,1,18.0752,18.32758Z"
          style="fill:#EA75DB;fill-rule:evenodd"/>
    <g style="opacity:0.2">
        <path d="M10.16667,46.5c-1.16985-1.17036-4.5.79167-9.136-2.50305-.00159.0127-.007.02386-.00842.03662a4.22771,4.22771,0,0,0,1.36011,3.4339c1.59711,1.59711,6.70683,2.31346,8.53428,2.5742C10.50389,48.51217,10.97613,47.3098,10.16667,46.5Z"
              style="fill:#333333;fill-rule:evenodd"/>
        <path d="M46.875,9.16665c.127,1.36976,2.42863,1.68687,3.16667,1.79167-.32428-1.20313-1.58506-7.59078-2.57218-8.57784-.25165-.25165-1.77645-.98686-2.05282-1.17216C48.04167,4.625,46.77972,8.13877,46.875,9.16665Z"
              style="fill:#333333;fill-rule:evenodd"/>
        <path d="M57.62122,12.53215A6.341,6.341,0,0,0,56.22,11.50066c-.40714,3.29157-5.596,4.7028-10.49207,5.12a2.41855,2.41855,0,0,0-2.039,3.1696C45.48128,25.7073,43.10377,32.47328,38.5,37c-4.978,4.89464-11.84794,7.0062-17.95247,4.78a1.5983,1.5983,0,0,0-2.11808,1.41216c-.33,5.12664-1.71734,10.8911-5.21265,11.286a3.94524,3.94524,0,0,1-2.64062-.70435,7.68525,7.68525,0,0,0,1.95795,3.84534,4.23178,4.23178,0,0,0,3.43268,1.359c4.03778-.45624,5.26251-8.078,5.29382-13.60443a17.57076,17.57076,0,0,0,20.53729-3.44849,17.55821,17.55821,0,0,0,3.37738-20.6637c5.54431-.00372,13.34088-1.20972,13.80243-5.29431A4.22747,4.22747,0,0,0,57.62122,12.53215Z"
              style="fill:#333333;fill-rule:evenodd"/>
        <path d="M13.96085,36.93748S18.3125,41.325,22.375,42.4c-.75,1.125-4.45833,5.80833-4.45833,5.80833C18.375,43.75,15.125,41.16665,13.45235,39.27592A14.17572,14.17572,0,0,0,13.96085,36.93748Z"
              style="fill:#333333;fill-rule:evenodd"/>
    </g>
    <path d="M15.585,60a5.37816,5.37816,0,0,1-3.7583-1.67383c-1.978-1.97754-2.34668-4.66309-2.61621-6.624-.03809-.27734-.07471-.54395-.11426-.79687-.25293-.04-.52051-.07617-.79883-.11426-1.96045-.27051-4.646-.63965-6.62207-2.61621A5.24327,5.24327,0,0,1,.02881,43.91992c.55615-4.94922,8.793-5.95508,13.03809-6.14258a18.78391,18.78391,0,0,1,4.30127-20.28223h0a18.73633,18.73633,0,0,1,20.39941-4.25C38.00977,6.90039,39.71924.5,43.92188.02832a5.25728,5.25728,0,0,1,4.25488,1.64551C50.15234,3.64941,50.52148,6.335,50.791,8.2959c.03857.27832.07471.5459.11426.7998.252.03906.51807.0752.79443.1123,1.96191.26953,4.64893.63672,6.62842,2.61719a5.2441,5.2441,0,0,1,1.64307,4.25488c-.47461,4.20117-6.875,5.91016-13.21826,6.15137A19.01476,19.01476,0,0,1,22.22119,46.93262c-.187,4.24414-1.19287,12.48047-6.14209,13.04A4.64061,4.64061,0,0,1,15.585,60Zm3.19727-41.09082A16.64936,16.64936,0,0,0,15.5083,38.26953a1.00015,1.00015,0,0,1-.87744,1.46875C8.79,39.77148,2.35107,41.16406,2.01611,44.14453a3.269,3.269,0,0,0,1.07373,2.61621c1.50049,1.501,3.61475,1.792,5.48047,2.04883.58447.08008,1.127.15625,1.59912.25977a.99884.99884,0,0,1,.76318.7627c.103.47168.17871,1.01367.25928,1.59863.25635,1.86523.54688,3.97852,2.04932,5.48145a3.22419,3.22419,0,0,0,2.61426,1.07227c2.97949-.33594,4.37207-6.77539,4.40527-12.61621a1.00033,1.00033,0,0,1,1.46875-.87793,16.6483,16.6483,0,0,0,19.36133-3.27246,16.60523,16.60523,0,0,0,3.20557-19.47949,1.00011,1.00011,0,0,1,.87842-1.47656c5.92969-.00391,12.46777-1.38477,12.80908-4.40723a3.225,3.225,0,0,0-1.07031-2.61523c-1.50342-1.50391-3.61865-1.79395-5.48535-2.04883-.58252-.08008-1.12354-.15527-1.59473-.25781a1.00189,1.00189,0,0,1-.76416-.76367c-.103-.47266-.1792-1.01562-.25977-1.60059-.25635-1.86523-.54687-3.98047-2.04687-5.48047A3.27709,3.27709,0,0,0,44.147,2.01563c-3.02393.33887-4.40479,6.877-4.40967,12.80859a1.00035,1.00035,0,0,1-1.47705.87793,16.60619,16.60619,0,0,0-19.478,3.207Z"
          style="fill:#bb44aa"/>
    <ellipse cx="25.8665" cy="23.94634" rx="8.91667" ry="6.67573" style="fill:#fff;opacity:0.6"
             transform="translate(-9.21197 20.48164) rotate(-37.15168)"/>
    <ellipse cx="43.54167" cy="8.04165" rx="3.95833" ry="1.29167" style="fill:#fff;opacity:0.5"
             transform="translate(26.08586 48.73366) rotate(-77.2459)"/>
    <ellipse cx="9.20833" cy="42.95832" rx="3.95833" ry="1.29167" style="fill:#fff;opacity:0.5"
             transform="translate(-6.2029 1.81583) rotate(-8.43649)"/>
</svg>