<?xml version="1.0" ?><!DOCTYPE svg  PUBLIC '-//W3C//DTD SVG 1.1//EN'  'http://www.w3.org/Graphics/SVG/1.1/DTD/svg11.dtd'><svg enable-background="new 0 0 66 66" id="Layer_1" version="1.1" viewBox="0 0 66 66" xml:space="preserve" xmlns="http://www.w3.org/2000/svg" xmlns:xlink="http://www.w3.org/1999/xlink"><g><path d="M49.6,25.9l-9.5-9.5l6.7-13.3C47.4,1.9,49,1.6,50,2.6l13.5,13.5c1,1,0.7,2.6-0.5,3.2L49.6,25.9z" fill="#27D1FF"/><path d="M16.4,40.1l9.5,9.5l-6.7,13.3c-0.6,1.2-2.2,1.5-3.2,0.5L2.6,49.9c-1-1-0.7-2.6,0.5-3.2L16.4,40.1z" fill="#27D1FF"/><path d="M21.4,58.6l-2.2,4.3c-0.6,1.2-2.2,1.5-3.2,0.5L2.6,50c-1-1-0.7-2.6,0.5-3.2l13.3-6.7l3.4,3.4l-6.6,3.3   C12,47.4,11.7,49,12.7,50L21.4,58.6z" fill="#02BEFF"/><path d="   M42,12.7l4.8-9.6C47.4,1.9,49,1.6,50,2.6L63.4,16c1,1,0.7,2.6-0.5,3.2L53.3,24" fill="none" stroke="#2A3C65" stroke-linecap="round" stroke-linejoin="round" stroke-miterlimit="10" stroke-width="1.9725"/><path d="   M12.7,42l-9.6,4.8C1.9,47.4,1.6,49,2.6,50L16,63.4c1,1,2.6,0.7,3.2-0.5l4.8-9.6" fill="none" stroke="#2A3C65" stroke-linecap="round" stroke-linejoin="round" stroke-miterlimit="10" stroke-width="1.9725"/><path d="M14.5,32.6c-1.2,1.2-1.4,2.9-0.8,4.3l24.9,9.5l8.2-8.2L19.3,27.8L14.5,32.6z" fill="#FF7DAF"/><path d="M46.7,38.2l-3.3,3.3l-24.1-9.2l-4.8,4.8l0,0l-0.8-0.3c-0.6-1.4-0.3-3.1,0.8-4.3l4.8-4.8L46.7,38.2z" fill="#FF5892"/><path d="M14.5,38.2l13.3,13.3c1.5,1.5,4,1.5,5.6,0l5.1-5.1l-24.9-9.5C13.8,37.4,14.1,37.8,14.5,38.2z" fill="#FFD880"/><path d="M19.3,27.8l27.4,10.4l4.8-4.8c1.2-1.2,1.4-2.9,0.8-4.3l-24.9-9.5L19.3,27.8z" fill="#FFD880"/><path d="M51.9,33l-24.4-9.3l-5.2,5.2l-2.9-1.1l8.2-8.2l24.9,9.5C52.9,30.4,52.7,31.8,51.9,33z" fill="#FECB4D"/><path d="M38.2,14.5c-1.5-1.5-4-1.5-5.6,0l-5.1,5.1l24.9,9.5c-0.2-0.5-0.5-0.9-0.8-1.3L38.2,14.5z" fill="#FF7DAF"/><path d="   M27.8,51.5L14.5,38.2c-1.5-1.5-1.5-4,0-5.6l18.1-18.1c1.5-1.5,4-1.5,5.6,0l13.3,13.3c1.5,1.5,1.5,4,0,5.6L33.4,51.5   C31.9,53,29.4,53,27.8,51.5z" fill="none" stroke="#2A3C65" stroke-linecap="round" stroke-linejoin="round" stroke-miterlimit="10" stroke-width="1.9725"/><g><line fill="none" stroke="#2A3C65" stroke-linecap="round" stroke-linejoin="round" stroke-miterlimit="10" stroke-width="1.9725" x1="52.4" x2="27.5" y1="29.1" y2="19.6"/><line fill="none" stroke="#2A3C65" stroke-linecap="round" stroke-linejoin="round" stroke-miterlimit="10" stroke-width="1.9725" x1="46.7" x2="19.3" y1="38.2" y2="27.8"/><line fill="none" stroke="#2A3C65" stroke-linecap="round" stroke-linejoin="round" stroke-miterlimit="10" stroke-width="1.9725" x1="38.5" x2="13.6" y1="46.4" y2="36.9"/></g></g></svg>