<?xml version="1.0" encoding="iso-8859-1"?>
<!-- Generator: Adobe Illustrator 19.0.0, SVG Export Plug-In . SVG Version: 6.00 Build 0)  -->
<svg version="1.1" id="Capa_1" xmlns="http://www.w3.org/2000/svg" xmlns:xlink="http://www.w3.org/1999/xlink" x="0px" y="0px"
	 viewBox="0 0 512.001 512.001" style="enable-background:new 0 0 512.001 512.001;" xml:space="preserve">
<polygon style="fill:#FFA4B4;" points="380.101,40.936 131.767,40.936 7.6,256 131.767,471.064 380.101,471.064 504.269,256 "/>
<polygon style="fill:#FF91A1;" points="131.767,40.936 380.101,40.936 329.7,128.235 182.169,128.235 "/>
<polygon style="fill:#FF6474;" points="380.101,471.064 131.767,471.064 182.169,383.765 329.7,383.765 "/>
<polygon style="fill:#FF91A1;" points="7.6,256 108.404,256 182.169,383.765 131.767,471.064 "/>
<polygon style="fill:#FF6474;" points="329.7,128.235 380.101,40.936 504.269,256 403.465,256 "/>
<polygon style="fill:#FFA4B4;" points="131.767,40.936 182.169,128.235 108.404,256 7.6,256 "/>
<polygon style="fill:#FF4555;" points="403.465,256 504.269,256 380.101,471.064 329.7,383.765 "/>
<polygon style="fill:#FF5B7B;" points="329.7,128.235 182.169,128.235 108.404,256 182.169,383.765 329.7,383.765 403.465,256 "/>
<path style="fill:#600;" d="M510.965,252.134L386.797,37.071c-1.381-2.392-3.933-3.866-6.696-3.866H131.767c-4.487,0-6.42,3.447-6.696,3.866
	L0.905,252.134c-1.698,2.658-0.594,6.825,0,7.731L92.77,418.98c2.135,3.698,6.866,4.965,10.561,2.83
	c3.698-2.135,4.965-6.863,2.83-10.561L20.991,263.731h82.95l34.651,60.017l34.651,60.017l-10.369,17.959l-31.106,53.877
	l-8.968-15.533c-2.137-3.699-6.865-4.963-10.561-2.83c-3.698,2.136-4.965,6.864-2.83,10.561l15.664,27.13
	c1.374,2.584,4.708,3.866,6.696,3.866h248.335c2.763,0,5.314-1.473,6.696-3.866l124.167-215.064
	C512.346,257.474,512.346,254.526,510.965,252.134z M176.263,409.455l10.369-17.959h138.603l10.369,17.959l31.107,53.877H145.158
	L176.263,409.455z M380.102,455.601l-31.107-53.877l-10.369-17.959l7.602-13.164c2.136-3.698,0.868-8.426-2.83-10.562
	c-3.697-2.137-8.426-0.868-10.562,2.83l-7.602,13.165H186.632l-34.651-60.017l-34.651-60.017l34.651-60.017l34.651-60.017h138.603
	l69.302,120.033l-46.488,80.518c-2.136,3.698-0.868,8.426,2.83,10.562c3.698,2.135,8.426,0.868,10.561-2.83l46.488-80.519h82.95
	l-55.388,95.935L380.102,455.601z M131.767,56.399l5.341,9.252c2.136,3.698,6.867,4.965,10.561,2.83
	c3.698-2.135,4.965-6.863,2.83-10.561l-5.341-9.252h221.553l-31.107,53.877l-10.369,17.959H186.632l-19.051-32.052
	c-2.135-3.698-6.865-4.965-10.561-2.83c-3.698,2.135-4.965,6.863-2.83,10.561l19.051,32.051l-34.651,60.017l-34.651,60.017h-82.95
	l66.465-115.122L131.767,56.399z M407.928,248.268l-34.651-60.017l-34.651-60.017l10.369-17.959l31.107-53.877l55.388,95.935
	l55.388,95.935L407.928,248.268L407.928,248.268z"/>
<circle style="fill:#fbb;" cx="225" cy="200" r="35"/>
</svg>
