<?xml version="1.0" ?><!DOCTYPE svg  PUBLIC '-//W3C//DTD SVG 1.1//EN'  'http://www.w3.org/Graphics/SVG/1.1/DTD/svg11.dtd'><svg height="43.3492mm" style="shape-rendering:geometricPrecision; text-rendering:geometricPrecision; image-rendering:optimizeQuality; fill-rule:evenodd; clip-rule:evenodd" version="1.1" viewBox="0 0 4335 4335" width="43.3492mm" xml:space="preserve" xmlns="http://www.w3.org/2000/svg" xmlns:xlink="http://www.w3.org/1999/xlink"><defs><style type="text/css">
   <![CDATA[
    .fil0 {fill:#C28410}
    .fil1 {fill:#DEA02C}
   ]]>
  </style></defs><g id="Layer_x0020_1"><g id="_544648656"><path class="fil0" d="M2172 3597l0 15c-34,59 -79,109 -135,150 -53,40 -123,77 -215,99 -83,23 -178,42 -272,33 -31,-3 -69,-11 -106,-22 -77,-16 -124,-40 -120,-58 14,-45 111,-136 145,-162 135,-99 299,-149 474,-130 126,14 208,67 230,73l-1 1zm1660 -1893c60,-56 147,-157 162,-297 5,-44 4,-91 1,-137l0 0c0,-85 -28,-198 -54,-286 -18,-62 -31,-102 -31,-102 -52,29 -137,130 -173,202 -106,220 -109,466 34,669 19,-11 41,-28 60,-48l0 0zm-83 591c0,0 19,0 53,-16 58,-23 122,-65 149,-93 40,-40 76,-83 109,-131 65,-80 98,-168 113,-249 1,-4 2,-8 3,-12 19,-86 15,-135 3,-195 -6,-52 -16,-83 -16,-83 -60,5 -173,82 -205,109 -54,49 -97,93 -141,167 -40,66 -69,142 -85,228 -13,71 -16,211 16,272l1 1zm-201 510c0,0 220,35 427,-130 104,-83 159,-203 186,-301l2 -7c12,-33 19,-101 27,-122l0 -45c-258,0 -473,151 -578,356 -30,58 -72,173 -64,248l0 1zm448 54c0,0 -60,238 -346,340l0 0c-67,29 -136,49 -200,58 -67,9 -213,-2 -259,-39 26,-80 80,-141 122,-191 142,-165 441,-254 681,-168l2 0zm-408 571c0,1 -89,198 -418,193 -86,7 -173,6 -252,-18l-2 -1c-23,-6 -42,-13 -59,-22 -54,-24 -87,-54 -135,-82 22,-43 114,-113 171,-141 73,-37 140,-61 234,-73 193,-23 359,39 472,132 0,0 -5,7 -9,13zm-1262 334c53,40 123,77 215,99 83,23 178,42 272,33 31,-3 69,-11 106,-22 77,-16 124,-40 120,-58 -14,-45 -111,-136 -145,-162 -135,-99 -299,-149 -474,-130 -126,14 -208,67 -230,73l0 15c34,59 79,109 135,150l0 1zm-1795 -2058c-60,-56 -147,-157 -162,-297 -5,-44 -4,-91 -1,-137l0 0c0,-85 28,-198 54,-286 18,-62 31,-102 31,-102 52,29 137,130 173,202 106,220 109,466 -34,669 -19,-11 -41,-28 -60,-48l0 0zm83 591c0,0 -19,0 -53,-16 -58,-23 -122,-65 -149,-93 -40,-40 -76,-83 -109,-131 -65,-80 -98,-168 -113,-249 -1,-4 -2,-8 -3,-12 -19,-86 -15,-135 -3,-195 6,-52 16,-83 16,-83 60,5 173,82 205,109 54,49 97,93 141,167 40,66 69,142 85,228 13,71 16,211 -16,272l-1 1zm201 510c0,0 -220,35 -427,-130 -104,-83 -159,-203 -186,-301l-2 -7c-12,-33 -19,-101 -27,-122l0 -45c258,0 473,151 578,356 30,58 72,173 64,248l0 1zm-448 54c0,0 60,238 346,340l0 0c67,29 136,49 200,58 67,9 213,-2 259,-39 -26,-80 -80,-141 -122,-191 -142,-165 -441,-254 -681,-168l-2 0zm1276 641l-867 -71 0 0c-4,-6 -9,-13 -9,-13 113,-93 280,-155 472,-132 94,12 161,36 234,73 57,28 148,99 171,141l0 1zm-867 -71c0,1 89,198 418,193 86,7 173,6 252,-18l2 -1c23,-6 42,-13 59,-22 54,-24 87,-54 135,-82m-867 -70l0 0 0 0z"/><path class="fil1" d="M3039 3817c-211,-318 -532,-361 -849,-204 0,0 307,443 849,204z"/><path class="fil1" d="M3995 2879c-358,-132 -643,23 -805,337 0,0 509,175 805,-337z"/><path class="fil1" d="M4177 1521c-363,120 -489,418 -420,765 0,0 508,-180 420,-765z"/><path class="fil1" d="M199 1534c363,120 489,418 420,765 0,0 -508,-180 -420,-765z"/><path class="fil1" d="M368 2880c358,-132 643,23 805,337 0,0 -509,175 -805,-337z"/><path class="fil1" d="M1326 3817c211,-318 532,-361 849,-204 0,0 -307,443 -849,204z"/><path class="fil1" d="M2187 584l3 7c33,59 333,588 421,796l739 85 -621 614 165 754 -715 -466 -699 436 164 -725 -621 -614 722 -83 438 -797 3 -8 0 2 0 -2z"/><polygon class="fil0" points="2895,2840 2180,2374 1480,2810 1510,2679 2167,1820 2857,2668 "/><polygon class="fil0" points="3351,1472 2167,1820 2611,1387 "/><polygon class="fil0" points="2167,1820 1746,1389 1024,1472 "/><polygon class="fil0" points="2167,1820 2187,584 2611,1387 2261,855 "/></g></g></svg>