<?xml version="1.0" ?><svg style="enable-background:new 0 0 64.369 100.8;" version="1.1" viewBox="0 0 64.369 100.8" xml:space="preserve" xmlns="http://www.w3.org/2000/svg" xmlns:xlink="http://www.w3.org/1999/xlink"><g id="scull"><g><path d="M32.472,74.848c2.769-1.534,7.627-3.772,14.574-6.712c0.341-0.17,1.236-0.553,2.685-1.151    c2.471-2.514,4.516-4.4,6.137-5.657c1.619-1.256,2.791-1.886,3.516-1.886c0.895,0,1.555,0.278,1.981,0.831    c0.425,0.554,0.639,1.406,0.639,2.557c0,0.981-0.15,2.365-0.448,4.155c1.832,2.301,2.749,4.006,2.749,5.114    c0,0.938-0.256,1.652-0.767,2.141c-0.511,0.49-1.278,0.735-2.301,0.735c-0.511,0-1.289-0.266-2.333-0.799    c-1.045-0.532-2.376-1.31-3.995-2.333c-3.921,0.725-9.546,2.92-16.875,6.584c0.937,0.554,1.619,0.959,2.046,1.214    c2.557,1.449,5.71,3.388,9.46,5.817c0.468,0.299,1.534,0.938,3.196,1.918c7.755,0.895,11.634,2.855,11.634,5.881    c0,1.961-2.088,3.282-6.264,3.963c-1.96,2.386-3.58,3.58-4.858,3.58c-1.534,0-3.026-2.004-4.475-6.009    c-0.128-0.425-0.362-1.044-0.703-1.854c-5.967-4.9-11.336-8.608-16.108-11.122c-5.839,3.282-11.25,7.202-16.236,11.761    c-0.682,4.816-2.131,7.223-4.347,7.223c-1.406,0-3.026-1.364-4.858-4.091c-4.347,0-6.52-1.192-6.52-3.58    c0-1.747,0.809-3.014,2.429-3.803c1.619-0.788,5.028-1.566,10.227-2.333c3.892-2.854,8.513-5.71,13.86-8.565    c-7.181-3.58-13.037-5.774-17.567-6.584c-1.066,0.938-2.045,1.641-2.941,2.11c-0.895,0.469-1.726,0.703-2.493,0.703    c-1.109,0-1.95-0.234-2.525-0.703c-0.575-0.468-0.863-1.151-0.863-2.045c0-0.809,0.937-2.45,2.813-4.922    c-0.426-1.747-0.639-3.068-0.639-3.963c0-1.278,0.256-2.226,0.767-2.844c0.511-0.617,1.256-0.927,2.237-0.927    c0.98,0,2.258,0.639,3.835,1.918c1.576,1.278,3.473,3.218,5.689,5.817C19.73,68.733,25.61,71.354,32.472,74.848z"/><path d="M44.298,48.448l-1.598,6.328L38.8,58.164c-0.679,1.321-1.582,2.312-2.708,2.972c-1.125,0.661-2.452,0.991-3.98,0.991    c-3.058,0-5.287-1.32-6.689-3.963L21.5,54.776l-1.607-6.328l2.315-0.575c0.255,0.639,0.446,1.13,0.574,1.47    c0.979,2.259,2.052,3.75,3.223,4.474c1.171,0.725,3.117,1.087,5.841,1.087c3.064,0,5.18-0.341,6.351-1.023    c1.171-0.681,2.245-2.194,3.224-4.538c0.128-0.341,0.318-0.831,0.574-1.47L44.298,48.448z"/><path d="M48.144,5.306C44.01,1.769,38.62,0,31.972,0C25.324,0,19.933,1.769,15.8,5.306c-4.134,3.538-6.2,8.161-6.2,13.871    c0,4.901,0.66,8.46,1.981,10.675c1.704,2.983,2.621,4.986,2.749,6.009l0.831,5.369l8.99,4.283l1.285,3.26    c0.807,0.256,1.762,0.458,2.866,0.607c1.104,0.15,2.335,0.224,3.694,0.224c2.76,0,4.946-0.277,6.56-0.831l1.279-3.26l8.949-4.283    l0.831-5.369c0.17-1.023,0.384-1.79,0.639-2.301c2.727-4.687,4.091-9.481,4.091-14.382C54.345,13.467,52.277,8.843,48.144,5.306z     M22.671,35.732c-3.558,0-5.337-2.046-5.337-6.137c0-1.959,0.46-3.43,1.382-4.411c0.921-0.98,2.304-1.47,4.148-1.47    c3.472,0,5.209,1.812,5.209,5.433C28.073,33.538,26.272,35.732,22.671,35.732z M33.814,44.357c-0.47,0-0.981-0.17-1.534-0.511    c-0.554,0.342-1.066,0.511-1.534,0.511c-0.767,0-1.353-0.17-1.758-0.511c-0.405-0.341-0.607-0.852-0.607-1.534    c0-0.639,0.511-1.534,1.534-2.685c0.809-0.98,1.598-2.11,2.365-3.388c0.724,1.236,1.512,2.365,2.365,3.388    c1.023,1.151,1.534,2.024,1.534,2.621C36.18,43.654,35.39,44.357,33.814,44.357z M41.624,35.732c-3.58,0-5.37-2.046-5.37-6.137    c0-3.92,1.832-5.881,5.497-5.881c1.747,0,3.057,0.447,3.931,1.342c0.873,0.895,1.311,2.259,1.311,4.091    C46.994,33.538,45.204,35.732,41.624,35.732z"/></g></g><g id="Слой_1"/></svg>